<svg width="29" height="30" viewBox="0 0 29 30" fill="none" xmlns="http://www.w3.org/2000/svg">
<path d="M5.83222 12.6597C8.15222 17.2044 11.89 20.914 16.4494 23.2426L19.9939 19.7096C20.4289 19.276 21.0733 19.1315 21.6372 19.3242C23.4417 19.9184 25.3911 20.2395 27.3889 20.2395C28.275 20.2395 29 20.9622 29 21.8454V27.4501C29 28.3333 28.275 29.056 27.3889 29.056C12.2606 29.056 0 16.835 0 1.75556C0 0.872316 0.725 0.149658 1.61111 0.149658H7.25C8.13611 0.149658 8.86111 0.872316 8.86111 1.75556C8.86111 3.76295 9.18333 5.69003 9.77944 7.48865C9.95667 8.05072 9.82778 8.67702 9.37667 9.12667L5.83222 12.6597Z" fill="#33BD94"/>
</svg>
