<svg width="50" height="47" viewBox="0 0 50 47" fill="none" xmlns="http://www.w3.org/2000/svg">
<g clip-path="url(#clip0_489_165)">
<path d="M21.5967 33.1851C21.5972 33.4922 21.688 33.793 21.8584 34.0488L22.6929 35.3032C22.8354 35.5177 23.0288 35.6935 23.2557 35.8152C23.4827 35.9368 23.7362 36.0005 23.9937 36.0005H27.0068C27.2643 36.0005 27.5178 35.9368 27.7448 35.8152C27.9717 35.6935 28.1651 35.5177 28.3076 35.3032L29.1421 34.0488C29.3124 33.7929 29.4035 33.4925 29.4038 33.1851L29.4058 31.3125H21.5942L21.5967 33.1851ZM16.9062 19.5937C16.9062 21.7603 17.7095 23.7368 19.0332 25.2471C19.8398 26.1675 21.1016 28.0903 21.5825 29.7124C21.5845 29.7251 21.5859 29.7378 21.5879 29.7505H29.4121C29.4141 29.7378 29.4155 29.7256 29.4175 29.7124C29.8984 28.0903 31.1602 26.1675 31.9668 25.2471C33.2905 23.7368 34.0938 21.7603 34.0938 19.5937C34.0938 14.8384 30.2319 10.9853 25.4731 11C20.4922 11.0151 16.9062 15.0513 16.9062 19.5937ZM25.5 15.6875C23.3462 15.6875 21.5938 17.4399 21.5938 19.5937C21.5938 20.0254 21.2441 20.375 20.8125 20.375C20.3809 20.375 20.0312 20.0254 20.0312 19.5937C20.0312 16.5781 22.4844 14.125 25.5 14.125C25.9316 14.125 26.2812 14.4746 26.2812 14.9062C26.2812 15.3379 25.9316 15.6875 25.5 15.6875Z" fill="white"/>
</g>
<rect x="0.5" y="0.5" width="49" height="46" rx="9.5" stroke="white"/>
<defs>
<clipPath id="clip0_489_165">
<rect width="25" height="25" fill="white" transform="translate(13 11)"/>
</clipPath>
</defs>
</svg>
