<svg width="50" height="47" viewBox="0 0 50 47" fill="none" xmlns="http://www.w3.org/2000/svg">
<path d="M32 14H27.82C27.4 12.84 26.3 12 25 12C23.7 12 22.6 12.84 22.18 14H18C16.9 14 16 14.9 16 16V30C16 31.1 16.9 32 18 32H32C33.1 32 34 31.1 34 30V16C34 14.9 33.1 14 32 14ZM25 14C25.55 14 26 14.45 26 15C26 15.55 25.55 16 25 16C24.45 16 24 15.55 24 15C24 14.45 24.45 14 25 14ZM27 28H20V26H27V28ZM30 24H20V22H30V24ZM30 20H20V18H30V20Z" fill="white"/>
<rect x="0.5" y="0.5" width="49" height="46" rx="9.5" stroke="white"/>
</svg>
