<svg width="80" height="80" viewBox="0 0 80 80" fill="none" xmlns="http://www.w3.org/2000/svg">
<path d="M39.9552 79.9981C18.1783 80.2086 -0.0530554 62.0708 0.000116012 39.9196C0.0490337 18.0258 18.1103 -0.129047 40.1487 0.000691068C62.2702 0.130429 80.0953 18.2704 79.9996 40.2216C79.906 62.0687 61.9299 80.1895 39.9552 79.9981ZM56.8446 43.6289C56.8743 43.1992 56.9126 42.8866 56.9126 42.5739C56.9169 37.008 56.868 31.4441 56.9381 25.8781C56.9658 23.7279 55.2579 22.4964 53.5437 22.5049C44.5067 22.5581 35.4718 22.5262 26.4348 22.5326C24.2824 22.5347 23.0956 23.7279 23.0914 25.9015C23.0807 31.4313 23.085 36.9612 23.0914 42.491C23.0914 42.8611 23.1573 43.2333 23.1913 43.5991C24.5398 43.5991 25.7627 43.5991 27.1175 43.5991C27.1537 37.9459 27.1026 32.3672 27.1473 26.7352C35.7844 26.7352 44.2323 26.7352 52.7716 26.7352C52.8078 27.2563 52.8673 27.7051 52.8673 28.156C52.8737 32.8712 52.8695 37.5843 52.8758 42.2996C52.8758 42.7398 52.946 43.178 52.9864 43.6267C54.3136 43.6289 55.5089 43.6289 56.8446 43.6289ZM40.0126 45.9386C33.6002 45.9386 27.1898 45.9386 20.7774 45.9386C20.4243 45.9386 20.0351 45.8621 19.7246 45.9812C19.4034 46.1066 18.927 46.4235 18.9227 46.6639C18.9015 47.6401 18.827 48.6971 19.1588 49.5798C19.8373 51.3834 21.3155 52.1958 23.253 52.1958C34.3765 52.1894 45.4999 52.1958 56.6234 52.1916C59.7222 52.1916 61.5874 49.9988 61.1621 46.8957C61.0812 46.3087 60.775 46.0024 60.2029 45.9556C59.886 45.9301 59.5648 45.9386 59.2479 45.9386C52.8354 45.9386 46.4251 45.9386 40.0126 45.9386ZM34.6891 35.232C35.0124 34.8832 35.2634 34.5982 35.5271 34.3239C35.9929 33.8411 36.4969 33.3902 36.9287 32.8776C37.4242 32.2906 37.3796 31.6462 36.8883 31.1676C36.4161 30.7082 35.6887 30.6614 35.1719 31.157C34.0723 32.2055 32.9983 33.2817 31.9519 34.3813C31.4776 34.8811 31.4435 35.534 31.8987 36.0147C32.9898 37.1696 34.1149 38.2968 35.2697 39.3858C35.7377 39.8282 36.4608 39.724 36.9032 39.2816C37.3626 38.8222 37.4285 38.2011 36.9819 37.6545C36.5586 37.1356 36.0546 36.6868 35.5909 36.2019C35.3016 35.9062 35.0273 35.5979 34.6891 35.232ZM45.2851 35.1597C45.132 35.4064 45.0894 35.5085 45.0171 35.583C44.6003 36.0147 44.1749 36.438 43.7559 36.8697C43.5092 37.1228 43.2412 37.361 43.0306 37.6418C42.601 38.2096 42.6393 38.8073 43.0902 39.2752C43.5517 39.7516 44.2919 39.8239 44.8044 39.3369C45.9295 38.2649 47.0291 37.1632 48.0968 36.036C48.5349 35.5745 48.5605 34.947 48.1287 34.4876C47.0164 33.3051 45.8636 32.1566 44.6789 31.0464C44.2536 30.6465 43.5496 30.7656 43.1285 31.1612C42.6818 31.5824 42.5904 32.1672 42.9413 32.699C43.1327 32.9903 43.3965 33.237 43.641 33.4901C44.1749 34.0367 44.7172 34.5833 45.2851 35.1597Z" fill="#33BD94"/>
</svg>
