<svg width="50" height="271" viewBox="0 0 50 271" fill="none" xmlns="http://www.w3.org/2000/svg">
<g clip-path="url(#clip0_489_164)">
<path d="M21.5967 33.1851C21.5972 33.4922 21.688 33.793 21.8584 34.0488L22.6929 35.3032C22.8354 35.5177 23.0288 35.6935 23.2557 35.8152C23.4827 35.9368 23.7362 36.0005 23.9937 36.0005H27.0068C27.2643 36.0005 27.5178 35.9368 27.7448 35.8152C27.9717 35.6935 28.1651 35.5177 28.3076 35.3032L29.1421 34.0488C29.3124 33.7929 29.4035 33.4925 29.4038 33.1851L29.4058 31.3125H21.5942L21.5967 33.1851ZM16.9062 19.5937C16.9062 21.7602 17.7095 23.7368 19.0332 25.2471C19.8398 26.1675 21.1016 28.0903 21.5825 29.7124C21.5845 29.7251 21.5859 29.7378 21.5879 29.7505H29.4121C29.4141 29.7378 29.4155 29.7256 29.4175 29.7124C29.8984 28.0903 31.1602 26.1675 31.9668 25.2471C33.2905 23.7368 34.0938 21.7602 34.0938 19.5937C34.0938 14.8384 30.2319 10.9853 25.4731 11C20.4922 11.0151 16.9062 15.0513 16.9062 19.5937ZM25.5 15.6875C23.3462 15.6875 21.5938 17.4399 21.5938 19.5937C21.5938 20.0254 21.2441 20.375 20.8125 20.375C20.3809 20.375 20.0312 20.0254 20.0312 19.5937C20.0312 16.5781 22.4844 14.125 25.5 14.125C25.9316 14.125 26.2812 14.4746 26.2812 14.9062C26.2812 15.3379 25.9316 15.6875 25.5 15.6875Z" fill="white"/>
</g>
<rect x="0.5" y="0.5" width="49" height="46" rx="9.5" stroke="white"/>
<path d="M32 126H27.82C27.4 124.84 26.3 124 25 124C23.7 124 22.6 124.84 22.18 126H18C16.9 126 16 126.9 16 128V142C16 143.1 16.9 144 18 144H32C33.1 144 34 143.1 34 142V128C34 126.9 33.1 126 32 126ZM25 126C25.55 126 26 126.45 26 127C26 127.55 25.55 128 25 128C24.45 128 24 127.55 24 127C24 126.45 24.45 126 25 126ZM27 140H20V138H27V140ZM30 136H20V134H30V136ZM30 132H20V130H30V132Z" fill="white"/>
<rect x="0.5" y="112.5" width="49" height="46" rx="9.5" stroke="white"/>
<path d="M25 238L15 243L25 248L35 243L25 238Z" fill="white" stroke="white" stroke-width="2" stroke-linecap="round" stroke-linejoin="round"/>
<path d="M15 253L25 258L35 253" stroke="white" stroke-width="2" stroke-linecap="round" stroke-linejoin="round"/>
<path d="M15 248L25 253L35 248" stroke="white" stroke-width="2" stroke-linecap="round" stroke-linejoin="round"/>
<rect x="0.5" y="224.5" width="49" height="46" rx="9.5" stroke="white"/>
<path d="M25 47L25 112" stroke="white" stroke-dasharray="2 2"/>
<path d="M25 159L25 224" stroke="white" stroke-dasharray="2 2"/>
<defs>
<clipPath id="clip0_489_164">
<rect width="25" height="25" fill="white" transform="translate(13 11)"/>
</clipPath>
</defs>
</svg>
