<svg width="80" height="80" viewBox="0 0 80 80" fill="none" xmlns="http://www.w3.org/2000/svg">
<path d="M39.9574 79.9702C18.0173 80.117 -0.0636541 61.9382 0.000168445 39.9003C0.063991 17.856 18.1471 -0.114333 40.1488 0.000547758C62.1463 0.115428 80.0932 18.0581 79.9996 40.2024C79.9082 62.0914 61.9272 80.1319 39.9574 79.9702ZM39.8935 54.3029C41.7359 54.3029 43.5782 54.3029 45.4206 54.3029C47.1927 54.3029 48.9627 54.3178 50.7349 54.2965C52.039 54.2795 52.6751 53.6073 52.6793 52.3117C52.6857 50.7055 52.2581 49.229 51.322 47.9185C49.401 45.2273 46.7864 43.8233 43.4719 43.7913C41.204 43.7679 38.9362 43.7977 36.6684 43.785C34.1006 43.7701 31.8668 44.6551 30.0095 46.3847C28.2821 47.9951 27.2886 49.9885 27.3269 52.4116C27.346 53.586 27.98 54.2391 29.1564 54.3008C29.4032 54.3136 29.6521 54.305 29.901 54.305C33.2326 54.3029 36.5641 54.3029 39.8935 54.3029ZM46.8757 34.6349C46.9353 31.0247 43.7548 27.7357 39.9318 27.8123C36.1684 27.8868 33.1645 30.8928 33.1241 34.6732C33.0858 38.3175 36.2386 41.6405 40.1339 41.549C43.8782 41.4618 46.8927 38.4345 46.8757 34.6349ZM32.4625 25.7019C32.6582 22.6618 29.8649 20.3834 27.2992 20.3536C24.5442 20.3217 21.9913 22.7405 21.9658 25.57C21.9402 28.6165 24.6059 30.8885 27.1673 30.9183C29.9159 30.9502 32.6178 28.5441 32.4625 25.7019ZM58.0021 25.6359C58.1787 22.6959 55.4279 20.3536 52.7729 20.3536C50.1158 20.3536 47.5054 22.7022 47.5054 25.6381C47.5054 28.5782 50.1179 30.9205 52.7729 30.9205C55.4237 30.9205 58.1787 28.5803 58.0021 25.6359ZM47.0863 40.3364C47.2033 40.4087 47.2289 40.4407 47.2565 40.4407C51.505 40.4513 55.7534 40.4683 60.0019 40.4598C60.8018 40.4577 61.1209 40.0875 61.189 39.2706C61.44 36.2454 58.7127 33.2032 55.6811 33.1521C54.1579 33.1266 52.6368 33.1479 51.1135 33.1479C50.3966 33.1479 49.7222 33.2925 49.0542 33.7244C49.301 36.188 48.5819 38.392 47.0863 40.3364ZM30.9754 33.5074C30.1585 33.3734 29.4777 33.1862 28.7884 33.1606C27.4098 33.1096 26.0249 33.1947 24.6463 33.1351C21.3978 32.9968 18.7598 36.205 18.8108 38.8451C18.8363 40.1449 19.1023 40.4683 20.4298 40.4704C24.3251 40.4747 28.2204 40.4726 32.1157 40.4726C32.354 40.4726 32.5922 40.4726 33.0028 40.4726C31.4307 38.3898 30.7052 36.1901 30.9754 33.5074Z" fill="#33BD94"/>
<path d="M39.8935 54.3029C36.5641 54.3029 33.2325 54.3029 29.9031 54.3029C29.6542 54.3029 29.4074 54.3114 29.1585 54.2987C27.9821 54.237 27.346 53.586 27.3289 52.4095C27.2907 49.9885 28.2842 47.993 30.0116 46.3825C31.8689 44.6508 34.1026 43.7679 36.6704 43.7828C38.9383 43.7956 41.2061 43.7679 43.4739 43.7892C46.7906 43.8232 49.403 45.2252 51.3241 47.9164C52.2602 49.2269 52.6878 50.7033 52.6814 52.3095C52.675 53.6072 52.041 54.2795 50.7369 54.2944C48.9648 54.3157 47.1948 54.3008 45.4226 54.3008C43.5782 54.3029 41.7358 54.3029 39.8935 54.3029Z" fill="white"/>
<path d="M46.8757 34.6349C46.8927 38.4345 43.8782 41.4618 40.1318 41.549C36.2365 41.6405 33.0836 38.3175 33.1219 34.6732C33.1623 30.8928 36.1663 27.8867 39.9297 27.8123C43.7548 27.7357 46.9353 31.0247 46.8757 34.6349Z" fill="white"/>
<path d="M32.4625 25.7019C32.6178 28.5441 29.916 30.9502 27.1695 30.9205C24.6081 30.8907 21.9424 28.6186 21.968 25.5721C21.9914 22.7405 24.5464 20.3238 27.3014 20.3557C29.8649 20.3833 32.6582 22.6618 32.4625 25.7019Z" fill="white"/>
<path d="M58.0021 25.636C58.1787 28.5803 55.4258 30.9205 52.7751 30.9205C50.1179 30.9205 47.5076 28.5782 47.5076 25.6381C47.5076 22.7022 50.1179 20.3536 52.7751 20.3536C55.428 20.3536 58.1787 22.6959 58.0021 25.636Z" fill="white"/>
<path d="M47.0864 40.3364C48.582 38.3919 49.3011 36.1879 49.0543 33.7223C49.7223 33.2904 50.3967 33.1457 51.1136 33.1457C52.6369 33.1457 54.1601 33.1245 55.6812 33.15C58.7106 33.201 61.438 36.2433 61.1891 39.2684C61.121 40.0875 60.8019 40.4577 60.002 40.4577C55.7535 40.4662 51.5051 40.4492 47.2566 40.4385C47.229 40.4407 47.2034 40.4087 47.0864 40.3364Z" fill="white"/>
<path d="M30.9752 33.5074C30.705 36.19 31.4326 38.3898 33.0048 40.4704C32.5942 40.4704 32.3559 40.4704 32.1176 40.4704C28.2223 40.4704 24.327 40.4725 20.4317 40.4683C19.1021 40.4662 18.8383 40.1449 18.8127 38.8429C18.7617 36.2049 21.3997 32.9968 24.6482 33.1329C26.0268 33.1904 27.4118 33.1074 28.7903 33.1585C29.4754 33.1861 30.1583 33.3712 30.9752 33.5074Z" fill="white"/>
</svg>
