<svg width="72" height="72" viewBox="0 0 80 80" fill="none" xmlns="http://www.w3.org/2000/svg">
<path d="M40.0256 79.9999C18.1454 80.0276 -0.0170519 62.3074 1.20141e-05 39.8613C0.017076 17.8715 18.0131 -0.0235582 40.0875 -9.90317e-05C62.1682 0.0233601 80.0853 17.9909 80 40.1428C79.9126 62.365 61.925 79.9615 40.0256 79.9999ZM40.6826 40.9575C39.454 40.7996 38.4131 40.5736 37.3679 40.548C34.883 40.4904 32.3959 40.5267 29.911 40.5309C23.8789 40.5395 18.6061 45.7964 18.5933 51.8105C18.589 53.4655 19.4956 54.3996 21.1337 54.4017C28.7698 54.4059 36.4059 54.4038 44.042 54.3996C44.2895 54.3996 44.5369 54.3484 44.9272 54.3057C42.8049 52.6956 41.3907 50.7804 40.6292 48.4111C39.8571 46.014 39.9254 43.5955 40.6826 40.9575ZM51.6931 54.4017C56.5371 54.7003 61.4323 50.4541 61.4259 44.8474C61.4195 39.4795 57.2133 35.3337 51.8957 35.1588C46.9322 34.9946 42.0712 39.1639 42.0477 44.7514C42.0242 50.4392 46.9258 54.6597 51.6931 54.4017ZM33.5946 20.2665C29.5377 19.9871 24.9624 23.6553 24.9901 28.8141C25.0157 33.538 28.7975 37.2104 33.5093 37.3746C37.69 37.5218 42.2354 33.9304 42.2269 28.7907C42.2183 23.6211 37.6495 19.9807 33.5946 20.2665Z" fill="#33BD94"/>
<path d="M51.9131 45.1606C52.6816 45.1606 53.2993 45.1418 53.9128 45.1648C54.5346 45.1879 54.9829 45.4771 54.9995 46.1625C55.018 46.9045 54.5594 47.2252 53.888 47.2399C52.8572 47.2609 51.8263 47.242 50.7955 47.2462C50.2356 47.2504 49.9939 46.9821 50.0001 46.412C50.0146 44.9825 50.0104 43.553 50.0022 42.1235C49.9981 41.4549 50.3203 41.0042 50.9525 41C51.5846 40.9958 51.9193 41.4402 51.9152 42.1109C51.9069 43.0793 51.9131 44.0498 51.9131 45.1606Z" fill="#33BD94"/>
</svg>
