<svg width="18" height="18" viewBox="0 0 18 18" fill="none" xmlns="http://www.w3.org/2000/svg">
<path d="M0 0.391258C0.131213 0.101171 0.352689 -0.00799639 0.671915 0.000367266C1.31037 0.0166544 1.94926 0.004329 2.58771 0.00564957C2.95361 0.00652996 3.16099 0.216062 3.1632 0.584062C3.16408 0.735489 3.1632 0.886475 3.1632 1.05111C3.23144 1.05463 3.2878 1.05947 3.3446 1.05947C4.67479 1.05991 6.00453 1.05771 7.33471 1.06343C7.4668 1.06387 7.52096 1.01897 7.57908 0.903642C7.87541 0.319947 8.35711 0.004329 9.01449 0.0100515C9.66395 0.015774 10.1338 0.337114 10.4292 0.912446C10.4688 0.98948 10.4851 1.06343 10.6067 1.06299C12.0068 1.05771 13.407 1.05991 14.8367 1.05991C14.8367 0.894838 14.8358 0.733728 14.8367 0.572617C14.8394 0.218262 15.0503 0.00652996 15.4061 0.00608977C16.0797 0.00476919 16.7538 0.00476919 17.4275 0.00608977C17.7846 0.00697015 17.9977 0.217382 17.9986 0.570857C17.9999 1.25051 18.0004 1.92973 17.9986 2.60939C17.9977 2.9523 17.7829 3.16667 17.4385 3.16711C16.7587 3.16887 16.0793 3.16887 15.3994 3.16711C15.0542 3.16623 14.8398 2.95318 14.8367 2.61159C14.8354 2.454 14.8363 2.29641 14.8363 2.12606C14.1234 2.12606 13.4189 2.12606 12.681 2.12606C12.8364 2.23875 12.972 2.33295 13.1028 2.43331C14.6104 3.59586 15.5078 5.11716 15.7869 7.00119C15.7878 7.00691 15.7896 7.01263 15.7891 7.01835C15.772 7.35202 15.9225 7.54174 16.2224 7.71606C16.8617 8.08802 17.088 8.98822 16.7693 9.65159C16.4205 10.3775 15.6355 10.7419 14.9006 10.5196C14.241 10.3198 13.8029 9.78628 13.7509 9.12071C13.7003 8.46527 14.0464 7.86528 14.661 7.573C14.7786 7.51709 14.7742 7.44358 14.7636 7.34982C14.6492 6.31669 14.2907 5.37424 13.6796 4.53479C12.8619 3.41186 11.7814 2.66133 10.4257 2.29465C10.1073 2.83433 9.64986 3.16271 9.00569 3.16447C8.36063 3.16579 7.8983 2.84665 7.57776 2.29641C6.64826 2.53632 5.83457 2.97915 5.13271 3.62271C4.12836 4.54447 3.51589 5.68325 3.27592 7.02364C3.27195 7.04653 3.27327 7.07118 3.26667 7.09319C3.18389 7.37183 3.25962 7.53294 3.53526 7.69449C4.19837 8.08318 4.43349 8.9464 4.12175 9.63354C3.79769 10.3471 2.9994 10.7367 2.27861 10.5324C1.49398 10.3097 0.992021 9.58644 1.10078 8.80642C1.17959 8.23989 1.48253 7.81862 2.00342 7.57344C2.12362 7.51665 2.16589 7.4471 2.1769 7.32649C2.33761 5.61546 3.03859 4.15886 4.27102 2.96462C4.58364 2.66177 4.93765 2.40206 5.27273 2.12298C4.58452 2.12298 3.88619 2.12298 3.16364 2.12298C3.16364 2.28321 3.16496 2.44476 3.1632 2.60631C3.16055 2.95098 2.94832 3.16579 2.60576 3.16711C1.96115 3.16887 1.31653 3.15611 0.672355 3.17239C0.352689 3.18032 0.131213 3.07115 0 2.78106C0 1.98431 0 1.18801 0 0.391258ZM1.06379 1.06651C1.06379 1.42439 1.06379 1.76202 1.06379 2.10273C1.41516 2.10273 1.75684 2.10273 2.09676 2.10273C2.09676 1.74969 2.09676 1.4081 2.09676 1.06651C1.74671 1.06651 1.40944 1.06651 1.06379 1.06651ZM15.8988 2.10229C16.2519 2.10229 16.5936 2.10229 16.9326 2.10229C16.9326 1.74881 16.9326 1.40766 16.9326 1.06695C16.5821 1.06695 16.2444 1.06695 15.8988 1.06695C15.8988 1.4125 15.8988 1.75013 15.8988 2.10229ZM9.00569 2.11197C9.28661 2.10801 9.5301 1.8593 9.52614 1.58066C9.52217 1.29982 9.2734 1.05639 8.99468 1.06035C8.71376 1.06431 8.47027 1.31302 8.47423 1.59166C8.4782 1.87251 8.72697 2.11593 9.00569 2.11197ZM3.19754 8.9957C3.19314 8.71486 2.94392 8.47187 2.66564 8.47627C2.38473 8.48067 2.14167 8.72982 2.14608 9.00802C2.15048 9.28887 2.3997 9.53185 2.67797 9.52745C2.95889 9.52305 3.20238 9.27434 3.19754 8.9957ZM15.8538 9.01639C15.864 8.73995 15.6244 8.48684 15.3422 8.47671C15.0657 8.46659 14.8125 8.70605 14.8024 8.98822C14.7923 9.26466 15.0318 9.51777 15.314 9.52789C15.5905 9.53802 15.8437 9.29811 15.8538 9.01639Z" fill="#000"/>
<path d="M5.69545 17.9999C5.33836 17.7957 5.26043 17.6218 5.31811 17.1882C5.40793 16.5134 5.68797 15.9368 6.20005 15.4825C6.28723 15.405 6.30352 15.3284 6.28679 15.2214C6.09658 14.0171 5.625 12.9377 4.85534 11.9913C4.72985 11.8372 4.59335 11.6915 4.45994 11.5441C4.20808 11.2654 4.18739 11.0502 4.39345 10.7407C5.76854 8.6762 7.14408 6.61214 8.52137 4.54895C8.78556 4.15322 9.21574 4.1541 9.47949 4.54895C10.8533 6.6073 12.2257 8.66652 13.5982 10.7257C13.8157 11.0524 13.8007 11.2689 13.5273 11.5559C12.6559 12.4711 12.0734 13.5399 11.7999 14.7746C11.7647 14.934 11.7445 15.0969 11.707 15.2558C11.6784 15.3773 11.7533 15.4367 11.8268 15.5049C12.3486 15.9878 12.6246 16.5874 12.6902 17.293C12.7211 17.6227 12.6141 17.8626 12.305 17.9999C10.1016 17.9999 7.89833 17.9999 5.69545 17.9999ZM8.46369 6.54435C7.44657 8.06918 6.45279 9.56011 5.45504 11.0554C5.93895 11.6044 6.33523 12.1951 6.64829 12.8404C6.96223 13.4875 7.1705 14.1707 7.30259 14.8424C8.44916 14.7804 9.56271 14.776 10.689 14.8446C10.6837 14.8517 10.693 14.8438 10.6965 14.8336C10.7062 14.8063 10.7159 14.7782 10.7216 14.75C10.9805 13.4065 11.5556 12.2145 12.445 11.1761C12.5247 11.0832 12.5278 11.0246 12.4595 10.923C11.5146 9.51433 10.5745 8.10175 9.63272 6.69093C9.60718 6.65264 9.5768 6.61786 9.5266 6.55315C9.5266 7.5678 9.52484 8.5393 9.53101 9.51125C9.53145 9.56231 9.58604 9.62702 9.63316 9.6618C9.78286 9.77185 9.95811 9.85196 10.0928 9.97654C10.6569 10.4977 10.7427 11.3904 10.3016 12.0098C9.82998 12.6718 8.95728 12.8884 8.26115 12.5046C7.6861 12.1876 7.39638 11.6876 7.425 11.0343C7.4523 10.4018 7.78033 9.94748 8.35097 9.67412C8.43331 9.63495 8.47646 9.59841 8.47602 9.49628C8.47118 8.54767 8.47338 7.59905 8.47294 6.65088C8.47294 6.62931 8.46942 6.60862 8.46369 6.54435ZM11.5256 16.9422C11.3191 16.2951 10.7137 15.8632 10.007 15.8566C9.33375 15.8505 8.66051 15.8522 7.98771 15.8566C7.65308 15.8588 7.33958 15.9469 7.0657 16.1454C6.78831 16.3466 6.57916 16.5997 6.46952 16.9422C8.1656 16.9422 9.83922 16.9422 11.5256 16.9422ZM9.00527 10.5853C8.72656 10.5814 8.47822 10.8248 8.47426 11.1056C8.4703 11.3843 8.71379 11.6325 8.99471 11.6365C9.27342 11.6405 9.52176 11.397 9.52572 11.1162C9.52968 10.838 9.28619 10.5893 9.00527 10.5853Z" fill="#000"/>
</svg>
