<svg width="21" height="20" viewBox="0 0 21 20" fill="none" xmlns="http://www.w3.org/2000/svg">
<path d="M0 12.5506C0.0626758 12.3205 0.108912 12.0838 0.191624 11.8609C0.440272 11.1899 0.895956 10.6951 1.51038 10.3399C2.57587 9.7242 3.64034 9.10742 4.70069 8.48289C4.83734 8.40224 4.96783 8.29108 5.06595 8.16597C6.78697 5.9677 8.50388 3.76633 10.2177 1.56289C10.4417 1.27493 10.6842 1.01798 11.0602 0.955424C11.6551 0.856161 12.1149 1.07692 12.4196 1.60425C12.8758 2.39422 13.3315 3.18419 13.7758 3.98089C13.8627 4.1365 13.9567 4.18717 14.1298 4.17217C14.5583 4.13443 14.9888 4.11892 15.4183 4.08842C15.634 4.07343 15.783 4.16183 15.8883 4.34847C16.138 4.78998 16.3908 5.23046 16.6466 5.66836C16.7555 5.855 16.7504 6.02819 16.6302 6.20759C16.3784 6.58396 16.1365 6.96654 15.8816 7.34033C15.8097 7.44579 15.8077 7.52024 15.8729 7.63191C16.305 8.37225 16.7386 9.11207 17.1516 9.86327C17.5759 10.6357 17.1429 11.5389 16.2849 11.7043C15.8899 11.7803 15.4938 11.8511 15.0992 11.9287C12.8449 12.3728 10.5907 12.8179 8.30403 13.2687C8.45405 13.5314 8.59532 13.7785 8.73711 14.0261C8.98114 14.4521 8.9385 14.6139 8.51775 14.8585C8.22286 15.0301 7.92798 15.2023 7.62076 15.3817C7.98346 16.015 8.33743 16.6406 8.69961 17.262C8.90562 17.6156 9.07515 17.9739 9.06591 18.3999C9.05152 19.0658 8.58608 19.7033 7.93723 19.9204C7.30276 20.1329 6.53884 19.9101 6.15148 19.3781C5.97064 19.1299 5.81961 18.8585 5.66548 18.5917C5.12349 17.6534 4.58304 16.7145 4.05081 15.7705C3.96861 15.6247 3.90029 15.589 3.73384 15.6438C2.09091 16.183 0.330332 15.1025 0.0416126 13.3881C0.0339066 13.3421 0.0138709 13.2977 0 13.2527C0 13.0185 0 12.7843 0 12.5506ZM15.0129 11.0942C13.4327 8.33968 11.8596 5.59805 10.2845 2.85177C10.2531 2.87865 10.2408 2.88589 10.2326 2.89623C8.7479 4.79981 7.26475 6.70442 5.77491 8.60438C5.68758 8.71605 5.72765 8.78171 5.78056 8.87374C6.43352 10.0091 7.09059 11.1418 7.7307 12.2844C7.83602 12.4725 7.93723 12.4994 8.12936 12.4596C9.15067 12.2487 10.1751 12.0507 11.1984 11.8485C12.4622 11.5999 13.726 11.3491 15.0129 11.0942ZM5.04129 9.2527C4.73048 9.43313 4.4356 9.60322 4.14174 9.77486C3.3285 10.251 2.4983 10.7008 1.70663 11.2116C0.8153 11.787 0.569734 13.0009 1.10453 13.931C1.62546 14.8368 2.81939 15.2369 3.73795 14.7442C4.85635 14.144 5.94085 13.4797 7.03973 12.8427C7.05052 12.8365 7.0572 12.8226 7.0762 12.7998C6.40218 11.6236 5.72456 10.4428 5.04129 9.2527ZM10.8285 2.13107C10.9333 2.31512 11.0279 2.48211 11.1234 2.64859C12.6677 5.3411 14.2125 8.03414 15.7578 10.7261C15.7943 10.7897 15.8508 10.9029 15.8837 10.8978C16.0466 10.8724 16.2212 10.8445 16.3594 10.7618C16.494 10.6812 16.5269 10.5162 16.4678 10.3565C16.4421 10.2862 16.4051 10.2195 16.3676 10.1543C14.8269 7.46751 13.2852 4.7812 11.7435 2.09437C11.7127 2.04112 11.6834 1.98631 11.6469 1.93668C11.4841 1.71386 11.2 1.69525 11.014 1.89739C10.9493 1.96822 10.8948 2.04732 10.8285 2.13107ZM6.07904 14.3689C5.60281 14.6455 5.13942 14.9148 4.66729 15.1894C5.11116 15.9628 5.5427 16.7171 5.97629 17.4704C6.23265 17.916 6.4813 18.3658 6.75101 18.8026C6.94058 19.1092 7.24368 19.2162 7.58634 19.148C7.9213 19.0813 8.13296 18.8642 8.21721 18.5214C8.2804 18.2655 8.19461 18.0489 8.07337 17.8369C7.48771 16.8143 6.90102 15.7922 6.31433 14.7701C6.24036 14.6413 6.16381 14.5131 6.07904 14.3689ZM14.3594 4.98593C14.6903 5.56341 15.0016 6.10626 15.3278 6.67599C15.4933 6.42473 15.6469 6.1988 15.7897 5.96718C15.8102 5.93358 15.7969 5.86172 15.7743 5.82139C15.6289 5.55721 15.4799 5.29561 15.3248 5.03711C15.298 4.99265 15.2349 4.94095 15.1896 4.94198C14.9261 4.94818 14.662 4.96835 14.3594 4.98593ZM7.50158 13.5407C7.25601 13.6844 7.02894 13.8178 6.79879 13.9527C6.94212 14.2003 7.07158 14.4232 7.20721 14.6574C7.44507 14.5188 7.66752 14.3901 7.90846 14.25C7.76718 14.0039 7.63618 13.7749 7.50158 13.5407Z" fill="#000" stroke="#000" stroke-width="0.3"/>
<path d="M21.0001 2.26032C20.9492 2.32185 20.8768 2.47436 20.7566 2.54467C20.025 2.97068 19.2837 3.38117 18.5424 3.79012C18.3076 3.91988 18.0667 3.85526 17.9521 3.65363C17.8308 3.44011 17.9012 3.20333 18.1473 3.06322C18.8773 2.64807 19.6099 2.23603 20.3456 1.83173C20.6646 1.65596 20.9965 1.83535 21.0001 2.26032Z" fill="#000" stroke="#000" stroke-width="0.3"/>
<path d="M15.7394 1.93047C15.7712 1.80743 15.819 1.62182 15.8678 1.43674C15.9659 1.06605 16.0574 0.693299 16.1658 0.325197C16.2377 0.0806583 16.456 -0.0439378 16.6677 0.0144828C16.8932 0.0765223 17.0186 0.299348 16.9549 0.549574C16.8269 1.05416 16.6949 1.55772 16.5572 2.05972C16.4858 2.31925 16.2957 2.45419 16.0815 2.41645C15.8693 2.37922 15.7311 2.21017 15.7394 1.93047Z" fill="#000" stroke="#000" stroke-width="0.3"/>
<path d="M18.5413 5.65236C18.6112 5.66994 18.7432 5.70199 18.8742 5.73715C19.2821 5.84623 19.6906 5.95222 20.0969 6.06854C20.3759 6.14816 20.5079 6.35651 20.4416 6.5845C20.3702 6.83007 20.156 6.93657 19.8709 6.86213C19.3833 6.73443 18.8958 6.60725 18.4103 6.47283C18.1565 6.40304 18.0209 6.20968 18.0553 5.99254C18.0877 5.78678 18.2603 5.64667 18.5413 5.65236Z" fill="#000" stroke="#000" stroke-width="0.3"/>
<path d="M2.87794 14.1575C2.42534 14.1171 2.08113 13.9289 1.83916 13.5577C1.70097 13.3458 1.73796 13.1085 1.92239 12.973C2.10579 12.8376 2.31077 12.8681 2.48544 13.0568C2.75772 13.3504 2.8651 13.3675 3.20827 13.1684C3.385 13.0661 3.55915 12.958 3.73896 12.8603C3.98401 12.7269 4.22598 12.7822 4.34568 12.9916C4.46127 13.1938 4.39397 13.4311 4.16382 13.5717C3.9198 13.7211 3.67372 13.8695 3.41582 13.992C3.24783 14.0716 3.05775 14.1037 2.87794 14.1575Z" fill="#000" stroke="#000" stroke-width="0.2"/>
<path d="M5.82115 12.3769C5.81807 12.5956 5.62593 12.7838 5.41016 12.7796C5.18874 12.775 5.00842 12.592 5.00637 12.3702C5.00431 12.1448 5.18206 11.9638 5.40657 11.9623C5.64288 11.9602 5.82423 12.1417 5.82115 12.3769Z" fill="#000" stroke="#000" stroke-width="0.2"/>
</svg>
