<svg width="13" height="22" viewBox="0 0 13 22" fill="none" xmlns="http://www.w3.org/2000/svg">
<path d="M1.26181 22C0.951975 21.8955 0.649884 21.7796 0.41983 21.5325C0.113091 21.2031 0 20.8088 0 20.3711C0.00154919 17.5137 0.000774593 14.6563 0.000774593 11.7989C0.000774593 8.40464 0.000774593 5.01037 0.000774593 1.61611C0.000774593 0.969437 0.24787 0.453929 0.855151 0.164147C1.05732 0.0680615 1.29977 0.00857988 1.52363 0.00781729C4.84121 -0.00209631 8.15879 -0.00133373 11.4764 0.00324178C12.3331 0.00476695 12.9675 0.64305 12.9985 1.50858C13 1.55129 12.9992 1.59476 12.9992 1.63746C12.9992 7.88227 12.9992 14.1263 13 20.3711C13 21.0361 12.7405 21.5501 12.1224 21.8566C12.0008 21.9169 11.8668 21.9527 11.7382 22C8.24632 22 4.75368 22 1.26181 22ZM1.07901 2.37107C1.07901 8.00581 1.07901 13.6215 1.07901 19.241C4.70101 19.241 8.30674 19.241 11.9249 19.241C11.9249 13.6146 11.9249 7.99818 11.9249 2.37107C8.30674 2.37107 4.70178 2.37107 1.07901 2.37107ZM7.24555 20.5091C7.244 20.1042 6.90318 19.7702 6.49574 19.7733C6.08598 19.7763 5.75213 20.1111 5.75368 20.5168C5.75523 20.9255 6.08908 21.2511 6.50349 21.2489C6.92022 21.2466 7.2471 20.9202 7.24555 20.5091ZM6.50039 1.42394C7.00155 1.42394 7.50349 1.42317 8.00465 1.4247C8.12781 1.4247 8.25407 1.42089 8.25871 1.26227C8.26414 1.09603 8.1402 1.07315 8.00387 1.07315C7.00077 1.07391 5.99845 1.07391 4.99535 1.07315C4.85902 1.07315 4.73586 1.09603 4.74129 1.26227C4.74671 1.42089 4.87297 1.4247 4.99613 1.42394C5.49729 1.42317 5.99923 1.42394 6.50039 1.42394Z" 
fill="#000"/>
</svg>
