<svg width="20" height="20" viewBox="0 0 20 20" fill="none" xmlns="http://www.w3.org/2000/svg">
<path d="M20 2.75907C20 7.58628 20 12.4135 20 17.2407C19.9885 17.2553 19.9708 17.2689 19.9666 17.2851C19.6634 18.5302 18.8222 19.1919 17.5394 19.1919C13.6594 19.1919 9.77883 19.1919 5.8988 19.1919C4.69434 19.1919 3.48989 19.1982 2.28543 19.1899C1.00948 19.181 0.000726589 18.155 0.000204729 16.878C-0.000317132 12.2924 0.000204729 7.70683 0.00124845 3.12124C0.00124845 2.99808 0.00542334 2.87231 0.0278634 2.75176C0.245479 1.57549 1.16761 0.809398 2.36371 0.807833C3.65949 0.806789 4.95475 0.807311 6.25053 0.807311C10.0528 0.807311 13.8546 0.802092 17.6568 0.810964C18.6452 0.813051 19.3691 1.27907 19.7991 2.17615C19.8873 2.36037 19.9342 2.56442 20 2.75907ZM1.24902 4.99785C1.24902 5.08553 1.24902 5.15024 1.24902 5.21547C1.24902 9.06367 1.24902 12.9124 1.24902 16.7606C1.24902 17.5053 1.66598 17.928 2.40755 17.9285C7.47221 17.9296 12.5369 17.9296 17.6015 17.9285C18.3285 17.9285 18.7501 17.5001 18.7501 16.7705C18.7507 12.9155 18.7501 9.06054 18.7501 5.20608C18.7501 5.13719 18.7501 5.06883 18.7501 4.99837C12.9048 4.99785 7.0876 4.99785 1.24902 4.99785ZM18.7481 3.73025C18.7481 3.49385 18.7585 3.27832 18.746 3.06436C18.7194 2.60877 18.4276 2.23669 17.9976 2.11875C17.8562 2.08013 17.7022 2.07282 17.554 2.07282C12.5155 2.07074 7.4769 2.07074 2.43886 2.07178C2.34806 2.07178 2.25621 2.07387 2.16593 2.08535C1.72756 2.14171 1.41967 2.38803 1.30903 2.80447C1.23127 3.09776 1.25267 3.41714 1.22919 3.73025C7.09334 3.73025 12.9105 3.73025 18.7481 3.73025Z" fill="#000"/>
<path d="M7.07542 11.0233C7.06393 11.0259 7.05193 11.0285 7.04045 11.0311C7.0081 10.9784 6.9747 10.9262 6.94443 10.8724C6.68767 10.4122 6.43666 9.94822 6.17416 9.49107C6.01499 9.21396 5.72641 9.10385 5.43938 9.18943C5.1748 9.26823 5.00154 9.5109 5.00102 9.81358C4.99998 11.0593 4.99893 12.3049 5.00154 13.5506C5.00206 13.8992 5.27813 14.1758 5.61681 14.181C5.9602 14.1863 6.24514 13.9039 6.24827 13.547C6.25192 13.1817 6.24879 12.8164 6.24983 12.4516C6.24983 12.3984 6.25766 12.3456 6.26497 12.2507C6.31715 12.3415 6.34638 12.3911 6.37456 12.4417C6.63131 12.902 6.88441 13.3648 7.14482 13.823C7.33322 14.1539 7.65781 14.2661 7.97197 14.1158C8.22977 13.9926 8.33623 13.7755 8.33623 13.4979C8.33623 12.2783 8.33675 11.0587 8.33571 9.83915C8.33571 9.78749 8.32997 9.73478 8.32214 9.68364C8.28144 9.41801 8.06904 9.21031 7.80393 9.17378C7.40314 9.11846 7.08324 9.39974 7.0775 9.82141C7.07124 10.2222 7.07542 10.6225 7.07542 11.0233ZM10.4237 11.0405C10.4237 10.9189 10.4232 10.8223 10.4237 10.7253C10.4252 10.4711 10.468 10.4262 10.7164 10.4257C11.0937 10.4247 11.4716 10.4299 11.8489 10.4242C12.2199 10.4184 12.4923 10.1549 12.4986 9.80784C12.5049 9.45245 12.2518 9.17587 11.8797 9.16752C11.4178 9.15708 10.9549 9.15134 10.4941 9.17795C9.79222 9.21866 9.2067 9.79062 9.1806 10.492C9.15138 11.2727 9.15294 12.0565 9.17904 12.8372C9.20148 13.5005 9.71186 14.0647 10.3673 14.1419C10.8427 14.1977 11.3275 14.1769 11.8087 14.181C12.21 14.1842 12.4918 13.9264 12.4986 13.5663C12.5054 13.19 12.2345 12.928 11.8223 12.9207C11.5358 12.9155 11.2493 12.9197 10.9633 12.9197C10.3976 12.9197 10.3955 12.9176 10.4294 12.3535C10.4299 12.3425 10.4409 12.3321 10.4571 12.3044C10.5113 12.3044 10.575 12.3044 10.6387 12.3044C11.0358 12.3044 11.433 12.307 11.8296 12.3034C12.2157 12.2997 12.4929 12.0409 12.4986 11.6865C12.5049 11.3171 12.2392 11.0525 11.8405 11.0431C11.5545 11.0363 11.268 11.0415 10.9815 11.0415C10.801 11.0405 10.6204 11.0405 10.4237 11.0405ZM16.0488 10.4513C16.0838 10.4377 16.0953 10.4289 16.1067 10.4289C16.3473 10.4268 16.5879 10.4273 16.8285 10.4242C17.2146 10.4184 17.4918 10.1627 17.4985 9.80888C17.5053 9.4394 17.2402 9.16699 16.8431 9.16438C15.8938 9.1576 14.9446 9.15708 13.9953 9.16804C13.8549 9.1696 13.6984 9.22231 13.5799 9.29955C13.3544 9.44567 13.2809 9.71912 13.3586 9.97327C13.4385 10.2337 13.6707 10.4148 13.9562 10.4231C14.227 10.4309 14.4978 10.4247 14.7875 10.4247C14.7875 10.5275 14.7875 10.6042 14.7875 10.6814C14.7875 11.5874 14.787 12.4933 14.788 13.3993C14.788 13.4901 14.7896 13.5825 14.8047 13.6717C14.8621 14.0177 15.2264 14.2478 15.565 14.157C15.8709 14.0751 16.0472 13.8345 16.0478 13.4864C16.0499 12.4761 16.0488 11.4663 16.0488 10.4513ZM2.50026 13.5402C2.49765 13.8914 2.78102 14.1826 3.12545 14.1816C3.46414 14.1805 3.74542 13.8992 3.74855 13.5585C3.75221 13.2036 3.4751 12.9223 3.12284 12.9228C2.77633 12.9228 2.50287 13.1942 2.50026 13.5402Z" fill="white"/>
<path d="M7.07558 11.0233C7.07558 10.6225 7.07141 10.2222 7.07662 9.82141C7.08236 9.39975 7.40227 9.11846 7.80305 9.17378C8.06816 9.21031 8.28056 9.41853 8.32126 9.68364C8.32909 9.73478 8.33483 9.78749 8.33483 9.83915C8.33535 11.0587 8.33535 12.2783 8.33535 13.4979C8.33535 13.7755 8.22837 13.9921 7.97109 14.1158C7.65693 14.2661 7.33234 14.1534 7.14394 13.823C6.88354 13.3648 6.63043 12.9025 6.37368 12.4417C6.3455 12.3911 6.31627 12.341 6.26409 12.2507C6.25678 12.3457 6.24947 12.3984 6.24895 12.4516C6.24791 12.8169 6.25104 13.1822 6.24739 13.547C6.24373 13.9039 5.95932 14.1863 5.61594 14.181C5.27725 14.1758 5.0017 13.8992 5.00066 13.5506C4.99805 12.3049 4.9991 11.0593 5.00014 9.81358C5.00066 9.5109 5.17392 9.26824 5.4385 9.18944C5.72605 9.10385 6.01464 9.21396 6.17328 9.49107C6.43578 9.94822 6.68679 10.4116 6.94355 10.8724C6.97382 10.9267 7.00774 10.9784 7.03957 11.0311C7.0521 11.0285 7.0641 11.0259 7.07558 11.0233Z" fill="#000"/>
<path d="M10.424 11.0405C10.6207 11.0405 10.8013 11.0405 10.9818 11.0405C11.2683 11.0405 11.5548 11.0353 11.8408 11.042C12.2395 11.052 12.5052 11.3165 12.4989 11.6855C12.4932 12.0398 12.216 12.2987 11.8299 12.3023C11.4327 12.306 11.0356 12.3034 10.639 12.3034C10.5753 12.3034 10.5116 12.3034 10.4574 12.3034C10.4417 12.331 10.4308 12.3415 10.4297 12.3524C10.3958 12.916 10.3979 12.9187 10.9636 12.9187C11.2501 12.9187 11.5366 12.915 11.8226 12.9197C12.2348 12.927 12.5057 13.189 12.4989 13.5652C12.4921 13.9253 12.2103 14.1836 11.809 14.18C11.3284 14.1758 10.843 14.1967 10.3676 14.1409C9.71268 14.0636 9.2023 13.4995 9.17934 12.8362C9.15272 12.055 9.15168 11.2717 9.1809 10.491C9.207 9.78958 9.79252 9.2171 10.4944 9.17692C10.9552 9.1503 11.4181 9.15604 11.88 9.16648C12.2515 9.17483 12.5046 9.45141 12.4989 9.8068C12.4932 10.1538 12.2207 10.4174 11.8492 10.4231C11.4719 10.4289 11.094 10.4236 10.7167 10.4247C10.4683 10.4257 10.4255 10.4701 10.424 10.7242C10.4235 10.8218 10.424 10.9189 10.424 11.0405Z" fill="#000"/>
<path d="M16.049 10.4513C16.049 11.4663 16.05 12.4756 16.0484 13.4854C16.0479 13.8335 15.8715 14.0735 15.5657 14.156C15.227 14.2468 14.8633 14.0166 14.8054 13.6707C14.7902 13.5814 14.7892 13.489 14.7887 13.3982C14.7876 12.4923 14.7882 11.5863 14.7882 10.6804C14.7882 10.6037 14.7882 10.5264 14.7882 10.4236C14.4985 10.4236 14.2272 10.4299 13.9568 10.4221C13.6714 10.4137 13.4391 10.2326 13.3593 9.97223C13.2815 9.7186 13.3551 9.44515 13.5806 9.2985C13.699 9.22179 13.8556 9.16856 13.996 9.167C14.9452 9.15604 15.8945 9.15656 16.8438 9.16334C17.2409 9.16595 17.506 9.43836 17.4992 9.80784C17.4924 10.1617 17.2153 10.4174 16.8292 10.4231C16.5886 10.4268 16.348 10.4257 16.1074 10.4278C16.0954 10.4294 16.0839 10.4377 16.049 10.4513Z" fill="#000"/>
<path d="M2.50026 13.5402C2.50287 13.1942 2.77633 12.9234 3.12284 12.9223C3.47458 12.9218 3.75168 13.2031 3.74855 13.5579C3.74542 13.8992 3.46414 14.1805 3.12545 14.181C2.78102 14.1821 2.49765 13.8914 2.50026 13.5402Z" fill="#33BD94"/>
</svg>
