<svg width="20" height="20" viewBox="0 0 20 20" fill="none" xmlns="http://www.w3.org/2000/svg">
<path d="M13.4205 19.3236C12.8838 19.1577 12.7699 18.7251 12.7777 18.2468C12.7841 17.8351 12.6731 17.5456 12.2585 17.3767C12.0867 17.3066 11.969 17.2648 11.8016 17.3543C11.5938 17.4653 11.3744 17.5553 11.1573 17.6478C10.7505 17.8215 10.3617 17.6993 10.1374 17.3222C9.92963 16.9733 9.72525 16.6225 9.52818 16.2673C9.31797 15.8892 9.40604 15.4945 9.75299 15.2352C9.97634 15.0683 10.2031 14.9048 10.4333 14.7471C10.5199 14.6877 10.5418 14.6269 10.532 14.5208C10.516 14.3471 10.5374 14.17 10.5282 13.9953C10.5252 13.9345 10.4955 13.8547 10.4503 13.8196C10.225 13.6449 9.98851 13.4853 9.76029 13.315C9.40361 13.0489 9.31651 12.6552 9.53256 12.2698C9.72817 11.9209 9.92865 11.5744 10.1325 11.2309C10.3632 10.8426 10.7505 10.7209 11.1656 10.902C11.4099 11.0085 11.6532 11.117 11.8941 11.2314C11.9962 11.28 12.0819 11.2946 12.1743 11.209C12.2313 11.1564 12.3018 11.1083 12.3748 11.0859C12.678 10.9934 12.767 10.7769 12.7636 10.4849C12.7617 10.3161 12.7909 10.1467 12.805 9.9774C12.8405 9.54822 13.1252 9.24457 13.5505 9.22754C13.9928 9.21002 14.4371 9.21002 14.8789 9.22852C15.2906 9.24555 15.5679 9.53994 15.6059 9.95258C15.6297 10.2119 15.6594 10.4713 15.6808 10.7312C15.6905 10.8489 15.727 10.9326 15.8477 10.9822C15.9699 11.0328 16.091 11.0976 16.1947 11.1788C16.3207 11.2776 16.4268 11.2893 16.5718 11.2119C16.7903 11.0951 17.0219 11.0027 17.2496 10.9039C17.6715 10.7209 18.0603 10.8465 18.2949 11.245C18.4919 11.5793 18.6866 11.9146 18.8768 12.2528C19.1021 12.6532 19.0141 13.0571 18.6447 13.3282C18.4296 13.4863 18.2136 13.6435 17.9936 13.7943C17.9085 13.8527 17.8788 13.9145 17.8905 14.0201C17.9065 14.17 17.9134 14.3257 17.8924 14.4741C17.87 14.6313 17.928 14.7169 18.053 14.7977C18.2564 14.9291 18.4511 15.0751 18.6462 15.2196C19.015 15.4916 19.1021 15.895 18.8759 16.296C18.6856 16.6337 18.4914 16.9699 18.2944 17.3042C18.0608 17.7003 17.6686 17.8273 17.2482 17.6439C16.9927 17.5324 16.7431 17.4083 16.4852 17.3032C16.4268 17.2794 16.3368 17.293 16.2774 17.3222C16.1309 17.3942 16.0005 17.4993 15.8511 17.5636C15.73 17.6156 15.6905 17.6945 15.6818 17.8117C15.6667 18.0112 15.6385 18.2103 15.6317 18.4098C15.6171 18.8429 15.4404 19.163 15.0224 19.3246C14.4891 19.3236 13.9548 19.3236 13.4205 19.3236ZM17.6 16.9417C17.8083 16.5816 18.0073 16.2366 18.2151 15.877C17.9036 15.6522 17.6039 15.4259 17.2939 15.2152C17.0963 15.0809 17.0496 14.9125 17.074 14.6834C17.1012 14.4259 17.1173 14.1598 17.0803 13.9058C17.0409 13.6347 17.1071 13.4537 17.3343 13.3033C17.6316 13.1068 17.9148 12.8888 18.2146 12.6722C18.0048 12.3092 17.8029 11.9593 17.5995 11.607C17.237 11.7691 16.8861 11.919 16.5421 12.0829C16.3479 12.1754 16.1932 12.1379 16.019 12.0221C15.7635 11.8518 15.4915 11.7048 15.2195 11.5613C15.0619 11.4781 14.9631 11.3725 14.9465 11.1876C14.911 10.7964 14.8657 10.4066 14.8239 10.0095C14.4093 10.0095 14.0069 10.0095 13.5913 10.0095C13.5563 10.375 13.5174 10.7307 13.4891 11.0869C13.4707 11.3263 13.3772 11.4849 13.1402 11.5856C12.8921 11.6912 12.6546 11.8343 12.4361 11.9939C12.2366 12.1399 12.059 12.1759 11.8332 12.0635C11.5038 11.9 11.1637 11.7574 10.8196 11.6017C10.6109 11.9642 10.4089 12.3141 10.2041 12.6693C10.5072 12.8873 10.7904 13.1063 11.0897 13.3014C11.3082 13.4435 11.3671 13.623 11.3437 13.8732C11.3189 14.1359 11.3184 14.405 11.3437 14.6678C11.3675 14.9189 11.3062 15.097 11.0892 15.2395C10.787 15.4381 10.4999 15.6595 10.2036 15.8736C10.4133 16.2366 10.6128 16.5816 10.8196 16.9393C11.1559 16.7874 11.4848 16.6488 11.8045 16.4916C12.0376 16.3772 12.2313 16.3923 12.4425 16.5558C12.6371 16.7062 12.8532 16.8439 13.0809 16.9315C13.3685 17.0424 13.4799 17.2264 13.494 17.5208C13.5101 17.858 13.5587 18.1937 13.5947 18.5426C13.9845 18.5426 14.3538 18.547 14.7232 18.5363C14.7636 18.5353 14.8302 18.4531 14.8366 18.402C14.8803 18.0594 14.9164 17.7154 14.9446 17.3709C14.9611 17.1704 15.0672 17.0633 15.2414 16.9762C15.5056 16.8444 15.765 16.6979 16.0078 16.531C16.1942 16.4025 16.3611 16.3767 16.565 16.4745C16.8993 16.6351 17.2389 16.7797 17.6 16.9417Z" fill="#000" stroke="#000" stroke-width="0.5"/>
<path d="M1 13.0951C1.03358 12.9491 1.06472 12.8026 1.10121 12.6571C1.50072 11.0801 2.87976 10.0013 4.50064 9.99979C6.03587 9.99833 7.57111 9.99882 9.10635 9.99979C9.43773 9.99979 9.64989 10.2674 9.51023 10.5321C9.45622 10.6343 9.32386 10.7049 9.21292 10.7633C9.14966 10.7964 9.05818 10.7784 8.97984 10.7784C7.51126 10.7788 6.04269 10.7759 4.57411 10.7798C3.33376 10.7827 2.31432 11.481 1.93769 12.607C1.84523 12.8839 1.79463 13.1866 1.78781 13.4785C1.76835 14.3457 1.78003 15.2138 1.78051 16.0819C1.78051 16.1169 1.78733 16.1519 1.79365 16.2123C1.87638 16.2123 1.95277 16.2123 2.02917 16.2123C3.82523 16.2123 5.62177 16.2123 7.41783 16.2128C7.5025 16.2128 7.58863 16.2128 7.67184 16.2254C7.87184 16.2561 8.00079 16.4215 7.99203 16.6239C7.98327 16.8196 7.83096 16.9758 7.63243 16.9904C7.57793 16.9943 7.52343 16.9918 7.46844 16.9918C5.49039 16.9918 3.51185 16.9884 1.53381 16.9967C1.29829 16.9977 1.12311 16.9378 1 16.7378C1 15.5237 1 14.3097 1 13.0951Z" fill="#000" stroke="#000" stroke-width="0.5"/>
<path d="M8.00029 8.44702C5.87237 8.45627 4.11329 6.71276 4.10162 4.58435C4.09042 2.4574 5.82712 0.684702 7.93217 0.675456C10.1243 0.665724 11.881 2.38879 11.8853 4.55272C11.8892 6.69184 10.1472 8.43778 8.00029 8.44702ZM7.9857 1.45548C6.25338 1.46522 4.8831 2.85788 4.89284 4.59895C4.90257 6.29039 6.31226 7.67868 8.00954 7.66846C9.7258 7.65775 11.1024 6.2573 11.0936 4.52937C11.0854 2.83112 9.68541 1.44624 7.9857 1.45548Z" fill="#000" stroke="#000" stroke-width="0.5"/>
<path d="M14.2094 12.3311C15.2847 12.3301 16.1514 13.1973 16.1514 14.2732C16.1514 15.3451 15.277 16.2225 14.2094 16.222C13.1466 16.2215 12.261 15.3359 12.2605 14.2732C12.2605 13.206 13.1374 12.3321 14.2094 12.3311ZM14.2137 15.4308C14.8522 15.4298 15.3665 14.9169 15.3694 14.2775C15.3728 13.6318 14.8497 13.1092 14.205 13.1126C13.5646 13.116 13.0527 13.6294 13.0517 14.2683C13.0512 14.9189 13.5636 15.4318 14.2137 15.4308Z" fill="#000" stroke="#000" stroke-width="0.5"/>
</svg>
