<svg width="19" height="18" viewBox="0 0 19 18" fill="none" xmlns="http://www.w3.org/2000/svg">
<path d="M4.64866 14.8867C4.12582 15.2782 3.62034 15.6613 3.10982 16.0388C2.7997 16.2678 2.43304 16.1513 2.35579 15.8018C2.31157 15.6019 2.39666 15.4501 2.55508 15.3314C3.03537 14.9713 3.5151 14.61 3.99539 14.2493C4.05081 14.2079 4.10455 14.1648 4.17228 14.1127C3.62482 13.0838 3.32534 11.9906 3.24976 10.8021C3.17643 10.8021 3.1031 10.8021 3.02977 10.8021C2.5338 10.8021 2.03784 10.8038 1.54187 10.8015C1.2144 10.8004 0.998885 10.6167 1 10.3456C1.00112 10.0757 1.21776 9.8931 1.54411 9.89198C2.04008 9.8903 2.53604 9.89142 3.03201 9.89142C3.1003 9.89142 3.1686 9.89142 3.24697 9.89142C3.31302 8.89785 3.53078 7.96029 3.9355 7.05858C3.48599 6.70293 3.03873 6.35793 2.60322 5.99893C2.50694 5.91995 2.41849 5.80178 2.38434 5.68472C2.32837 5.49486 2.40673 5.32572 2.58027 5.21763C2.76164 5.10505 2.94133 5.12745 3.1059 5.25515C3.4748 5.54247 3.84089 5.83426 4.20867 6.12326C4.25737 6.16191 4.30831 6.19775 4.36653 6.24144C5.14742 4.9992 6.18078 4.06612 7.57463 3.52901C7.35744 3.1392 7.07195 2.82164 6.73888 2.54553C5.98933 1.92441 5.10432 1.62533 4.15661 1.501C3.73565 1.44555 3.30854 1.43267 2.88367 1.41138C2.55396 1.39458 2.34124 1.2232 2.3418 0.952686C2.34236 0.679931 2.55955 0.493988 2.88479 0.500149C4.11575 0.523672 5.3176 0.686092 6.42988 1.26241C7.26284 1.69422 7.9217 2.31254 8.39136 3.12632C8.45853 3.24282 8.52794 3.28034 8.65613 3.25738C9.21815 3.15712 9.78017 3.16273 10.3444 3.24954C10.4194 3.26074 10.5476 3.21929 10.5812 3.16161C11.3772 1.78887 12.6082 1.03222 14.1207 0.721377C14.7857 0.584719 15.4748 0.553355 16.1555 0.505749C16.5457 0.478306 16.7752 0.850193 16.5977 1.16943C16.4936 1.3565 16.3212 1.41194 16.1203 1.41026C15.4049 1.40466 14.6984 1.47971 14.0082 1.66958C12.9653 1.95633 12.0898 2.49064 11.4892 3.41756C11.4707 3.44612 11.455 3.47637 11.4265 3.52565C12.8114 4.06052 13.852 4.9936 14.638 6.24592C15.0236 5.9418 15.4015 5.64384 15.7788 5.34644C15.8448 5.29436 15.9081 5.23947 15.9781 5.19354C16.1964 5.05072 16.4404 5.09105 16.5921 5.291C16.731 5.47358 16.7136 5.73681 16.5272 5.89419C16.2182 6.15575 15.8958 6.40162 15.5789 6.65365C15.4155 6.78414 15.2509 6.91352 15.0931 7.03786C15.2414 7.50664 15.4121 7.96253 15.5269 8.43243C15.6405 8.89841 15.6971 9.37783 15.7855 9.89086C15.8236 9.89086 15.8963 9.89086 15.9697 9.89086C16.4656 9.89086 16.9616 9.88918 17.4576 9.89142C17.7862 9.89254 18 10.0746 18 10.3462C18 10.6195 17.789 10.7999 17.4587 10.801C16.8944 10.8027 16.3302 10.8015 15.7536 10.8015C15.673 11.9732 15.3847 13.0698 14.8266 14.111C15.0768 14.3003 15.3254 14.4885 15.575 14.6767C15.8594 14.8906 16.1466 15.1018 16.4287 15.3185C16.6817 15.5134 16.7287 15.7716 16.5591 15.9906C16.394 16.2034 16.1415 16.2258 15.8919 16.0404C15.3825 15.6618 14.8764 15.2793 14.3541 14.8873C13.1411 16.5148 11.5664 17.4949 9.51372 17.5C7.4554 17.505 5.88353 16.5165 4.64866 14.8867ZM9.06981 9.44112C7.39886 9.34815 6.00333 8.57693 4.67105 7.62033C4.10567 9.03395 3.987 10.4464 4.30551 11.8864C4.66601 13.5145 5.47713 14.8604 6.8833 15.8035C7.54049 16.2443 8.26484 16.5087 9.06925 16.577C9.06981 14.1961 9.06981 11.8315 9.06981 9.44112ZM9.9733 16.5546C10.0601 16.5546 10.116 16.5613 10.1698 16.5535C10.2868 16.5361 10.4038 16.5159 10.5185 16.4891C11.9303 16.1541 12.9944 15.3269 13.7669 14.1256C14.793 12.5305 15.0695 10.7819 14.7186 8.93146C14.6352 8.49292 14.484 8.06727 14.3592 7.61641C13.9578 7.87516 13.6119 8.10871 13.2559 8.32602C12.3484 8.87993 11.3817 9.27422 10.3192 9.41144C9.97274 9.45624 9.9733 9.46352 9.9733 9.81357C9.9733 11.9642 9.9733 14.1149 9.9733 16.2661C9.9733 16.3552 9.9733 16.4448 9.9733 16.5546ZM13.9209 6.78639C12.822 5.09385 11.366 4.01403 9.27693 4.10701C7.38711 4.19102 6.0677 5.23835 5.08529 6.78414C8.00958 9.07147 10.7951 9.20981 13.9209 6.78639Z" fill="#000" stroke="#000" stroke-width="0.5"/>
</svg>
