<svg width="18" height="18" viewBox="0 0 18 18" fill="none" xmlns="http://www.w3.org/2000/svg">
<path d="M9.00139 -2.67029e-05C4.00516 -2.67029e-05 -0.00120248 4.00718 2.70738e-07 9.0038C0.00120302 13.994 4.01559 17.9879 9.01422 18C13.9724 18.0117 18.0301 13.9082 18 8.97117C17.9691 4.00275 13.9788 0.000377655 9.00139 -2.67029e-05ZM6.77149 9.53597C7.27224 9.53597 7.77298 9.5396 8.27373 9.53356C8.40924 9.53195 8.46336 9.57143 8.46256 9.71565C8.45735 10.4738 8.45735 11.2316 8.46256 11.9898C8.46336 12.132 8.41044 12.1686 8.27613 12.1771C7.39773 12.2343 6.51932 12.2963 5.64171 12.3672C5.49537 12.3789 5.43083 12.3358 5.41238 12.1972C5.30253 11.3746 5.19188 10.552 5.08042 9.72975C5.05998 9.57989 5.11891 9.53074 5.26966 9.53315C5.7696 9.54081 6.27035 9.53597 6.77149 9.53597ZM11.2253 9.53597C11.7196 9.53597 12.2139 9.54282 12.7083 9.53235C12.8819 9.52872 12.9356 9.59157 12.9139 9.75352C12.8089 10.5367 12.7027 11.3198 12.6044 12.1038C12.58 12.2984 12.497 12.3535 12.3009 12.3386C11.4362 12.2738 10.5698 12.2226 9.7038 12.1743C9.56949 12.1666 9.53381 12.1159 9.53421 11.9914C9.53742 11.2332 9.53862 10.4746 9.53341 9.71645C9.53261 9.57344 9.58593 9.53195 9.72264 9.53356C10.2234 9.5396 10.7241 9.53597 11.2253 9.53597ZM2.21627 13.0356C2.20785 13.0283 2.19502 13.0215 2.18821 13.0106C2.16616 12.9772 2.14531 12.9429 2.12526 12.9079C1.58002 11.9587 1.25688 10.9371 1.14021 9.84899C1.10653 9.53557 1.10693 9.53557 1.42005 9.53557C2.18179 9.53557 2.94354 9.53557 3.70488 9.53557C3.98552 9.53557 3.98512 9.53597 4.00436 9.82482C4.02842 10.1862 4.03563 10.55 4.08214 10.9081C4.14348 11.3794 4.22847 11.8484 4.31868 12.3153C4.35356 12.4954 4.31427 12.5771 4.12584 12.5928C3.97349 12.6057 3.82235 12.6408 3.6732 12.6766C3.18729 12.7939 2.70298 12.9155 2.21627 13.0356ZM11.2429 8.45914C10.7486 8.45914 10.2539 8.45229 9.75953 8.46277C9.58152 8.46639 9.5298 8.40717 9.53181 8.23193C9.54023 7.52734 9.54143 6.82234 9.53101 6.11734C9.5282 5.92357 9.59074 5.872 9.78038 5.86153C10.6263 5.81399 11.4718 5.75477 12.3158 5.68185C12.489 5.66695 12.5647 5.70683 12.5868 5.87281C12.6942 6.6761 12.8029 7.47939 12.9127 8.28229C12.9332 8.43336 12.857 8.46196 12.7259 8.46075C12.232 8.45632 11.7373 8.45914 11.2429 8.45914ZM6.76468 8.45914C6.26353 8.45914 5.76238 8.45551 5.26124 8.46156C5.12252 8.46317 5.06158 8.42006 5.08082 8.27624C5.18466 7.50598 5.27968 6.73452 5.39354 5.96587C5.43524 5.68346 5.45488 5.6883 5.74835 5.70804C6.58747 5.76363 7.42659 5.82003 8.26611 5.86797C8.41004 5.87603 8.46457 5.91873 8.46336 6.0694C8.45735 6.80099 8.45735 7.53298 8.46336 8.26496C8.46457 8.41402 8.41766 8.46438 8.26812 8.46236C7.76737 8.45471 7.26582 8.45914 6.76468 8.45914ZM16.8746 8.27222C16.9119 8.45471 16.8093 8.46035 16.689 8.45995C15.8743 8.45793 15.0593 8.4531 14.2446 8.46357C14.055 8.46599 14.0181 8.39509 13.998 8.22266C13.9002 7.38472 13.7904 6.54799 13.6721 5.71287C13.6484 5.54609 13.6905 5.49251 13.8509 5.45786C14.4378 5.33177 15.0232 5.19681 15.6045 5.04776C15.7641 5.00667 15.8443 5.03406 15.9244 5.17788C16.4657 6.14755 16.7611 7.19055 16.8746 8.27222ZM13.658 12.5163C13.6681 12.4377 13.6757 12.3793 13.6829 12.3213C13.7912 11.4644 13.9058 10.6084 14.0012 9.74989C14.0213 9.57022 14.0822 9.53074 14.2478 9.53235C14.9955 9.54 15.7436 9.53557 16.4917 9.53557C16.8826 9.53557 16.8922 9.53678 16.8469 9.92513C16.7263 10.9556 16.4212 11.9273 15.9144 12.8346C15.8394 12.9687 15.7609 12.9816 15.6229 12.9453C15.1972 12.8333 14.7682 12.733 14.3384 12.6368C14.1187 12.588 13.895 12.5578 13.658 12.5163ZM2.54623 8.45995C2.12566 8.45995 1.7047 8.45551 1.28414 8.46236C1.1362 8.46478 1.09571 8.40798 1.11976 8.26899C1.14903 8.09778 1.16146 7.92334 1.18992 7.75173C1.33786 6.85819 1.61369 6.00776 2.0531 5.21414C2.10802 5.11463 2.15694 5.04373 2.29966 5.07757C2.9291 5.22743 3.56095 5.36682 4.19319 5.50339C4.31507 5.52957 4.34634 5.58718 4.32269 5.70038C4.283 5.89053 4.23609 6.08028 4.21404 6.27284C4.13907 6.91781 4.06891 7.56359 4.00797 8.21018C3.99153 8.38582 3.94984 8.47324 3.74778 8.46518C3.34806 8.44867 2.94674 8.45995 2.54623 8.45995ZM9.56869 16.8051C9.55145 16.7588 9.53862 16.7406 9.53862 16.7221C9.53662 15.6223 9.53662 14.5225 9.53421 13.4231C9.53381 13.3051 9.59155 13.2729 9.69658 13.2785C10.3356 13.3115 10.9755 13.3401 11.6146 13.3764C11.8102 13.3877 12.0047 13.4179 12.2011 13.4396C12.1979 13.4896 12.2011 13.5105 12.1947 13.5287C11.8571 14.4782 11.4137 15.3673 10.7001 16.0933C10.3846 16.4135 10.0269 16.679 9.56869 16.8051ZM5.80007 13.4296C6.62676 13.3796 7.431 13.3341 8.23444 13.2797C8.41044 13.2676 8.46497 13.3232 8.46376 13.5025C8.45615 14.5358 8.46056 15.5687 8.45935 16.6021C8.45935 16.6649 8.44893 16.7278 8.44292 16.7934C7.27464 16.5493 6.13844 14.7364 5.80007 13.4296ZM8.4373 1.25245C8.44773 1.29677 8.45815 1.32174 8.45815 1.34632C8.45935 2.43242 8.45775 3.51852 8.46136 4.60462C8.46176 4.74924 8.38719 4.77019 8.27132 4.76415C7.59858 4.73031 6.92545 4.70009 6.25271 4.66424C6.10356 4.65618 5.95522 4.6304 5.78323 4.60945C5.81089 4.51518 5.82533 4.44388 5.85259 4.37821C5.96324 4.11233 6.06788 3.84362 6.19257 3.58459C6.53215 2.87918 6.9483 2.22656 7.5605 1.72339C7.81829 1.51229 8.09452 1.3302 8.4373 1.25245ZM12.1907 4.58206C12.1065 4.60018 12.0363 4.62436 11.965 4.62879C11.2325 4.67471 10.4996 4.71258 9.76755 4.76374C9.57591 4.77704 9.53101 4.70573 9.53261 4.52485C9.53983 3.49837 9.53582 2.4723 9.53662 1.44582C9.53662 1.38378 9.54664 1.32134 9.55225 1.25567C10.7237 1.53244 11.8042 3.23209 12.1907 4.58206ZM2.84571 4.09823C3.15041 3.38678 5.40637 1.70848 6.04503 1.70929C6.01657 1.7532 5.99371 1.79349 5.96645 1.83015C5.46691 2.50292 5.10007 3.24538 4.809 4.02934C4.61656 4.54781 4.71639 4.47409 4.1944 4.38707C3.74337 4.31174 3.29875 4.19693 2.84571 4.09823ZM15.1671 4.0523C14.6134 4.17316 14.1051 4.27629 13.6015 4.39755C13.3995 4.44629 13.3084 4.39433 13.2407 4.19209C12.9512 3.32958 12.5475 2.52346 12.0031 1.79228C11.9826 1.76488 11.9734 1.72903 11.9389 1.6541C13.2287 2.18426 14.2735 2.96338 15.1671 4.0523ZM11.993 16.3193C12.0103 16.2669 12.0123 16.2451 12.0231 16.2306C12.5812 15.4749 12.9857 14.6398 13.2844 13.7519C13.3369 13.596 13.4315 13.5823 13.561 13.608C13.8489 13.6652 14.1371 13.7204 14.4238 13.7825C14.6543 13.8324 14.8833 13.8912 15.1539 13.9557C14.2811 15.0249 13.2499 15.7923 11.993 16.3193ZM6.00213 16.2798C4.7633 15.8056 3.74457 15.043 2.86656 13.9887C3.42864 13.8671 3.94302 13.7615 4.45419 13.6415C4.61015 13.6048 4.67991 13.6443 4.72922 13.7954C4.96095 14.5056 5.28008 15.1756 5.681 15.8052C5.78323 15.9668 5.89469 16.1219 6.00213 16.2798Z" 
fill="#000"/>
</svg>
