<svg width="14" height="18" viewBox="0 0 14 18" fill="none" xmlns="http://www.w3.org/2000/svg">
<g clip-path="url(#clip0_320_2)">
<path d="M8.91952 0C9.07752 0.133319 9.24577 0.255842 9.39118 0.401836C10.8416 1.85677 12.2904 3.31295 13.7377 4.77039C13.8235 4.85261 13.8912 4.95222 13.9361 5.06267C13.981 5.17311 14.0022 5.29189 13.9982 5.41117C13.9945 9.36975 13.9945 13.3286 13.9982 17.2879C13.9982 17.7601 13.705 18.0019 13.2949 18.0009C9.09663 17.9912 4.89819 17.9912 0.699607 18.0009C0.292735 18.0009 -0.00274739 17.7601 0.000515032 17.2864C0.00735059 11.7762 0.00735059 6.2657 0.000515032 0.754851C0.000515032 0.39902 0.105375 0.14177 0.439541 0.000939785L8.91952 0ZM1.18291 1.19002V16.8006H12.8186V5.86793H8.85241C8.38122 5.86793 8.15938 5.64495 8.15938 5.16941C8.15938 3.91007 8.15938 2.65074 8.15938 1.3914V1.19002H1.18291ZM9.34271 4.67181H11.8897L9.34177 2.10447L9.34271 4.67181Z" fill="#33BD94"/>
<path d="M6.99934 8.60658C8.34314 8.60658 9.68649 8.60658 11.0294 8.60658C11.3673 8.60658 11.5844 8.77557 11.6502 9.07883C11.6662 9.15618 11.6663 9.23602 11.6505 9.31341C11.6347 9.39081 11.6033 9.46412 11.5583 9.52883C11.5132 9.59354 11.4555 9.64826 11.3887 9.68963C11.3219 9.731 11.2473 9.75814 11.1697 9.76937C11.1061 9.77688 11.0421 9.78017 10.9781 9.77922H3.02244C2.63748 9.77922 2.41936 9.62384 2.34945 9.30463C2.33287 9.22436 2.33341 9.14147 2.35105 9.06144C2.36868 8.9814 2.40301 8.90606 2.45175 8.84041C2.50049 8.77475 2.56254 8.72029 2.63377 8.68062C2.705 8.64096 2.78379 8.617 2.86491 8.61033C2.98655 8.60235 3.10866 8.60611 3.23077 8.60611L6.99934 8.60658Z" fill="#33BD94"/>
<path d="M6.99326 12.1265C5.65007 12.1265 4.30673 12.1265 2.96323 12.1265C2.62953 12.1265 2.41188 11.9523 2.34757 11.6463C2.3187 11.4954 2.35043 11.3391 2.43579 11.2118C2.52116 11.0844 2.65318 10.9964 2.80291 10.967C2.86589 10.9563 2.92967 10.9513 2.99353 10.952C5.66312 10.952 8.33256 10.952 11.0018 10.952C11.3514 10.952 11.5714 11.1088 11.6441 11.4007C11.6656 11.4844 11.6682 11.5718 11.6518 11.6566C11.6354 11.7414 11.6003 11.8214 11.5492 11.8908C11.498 11.9602 11.4321 12.0172 11.3563 12.0575C11.2805 12.0979 11.1966 12.1207 11.1109 12.1241C10.89 12.1321 10.6686 12.1274 10.4477 12.1274L6.99326 12.1265Z" fill="#33BD94"/>
<path d="M5.25992 14.4774C4.4816 14.4774 3.70281 14.4774 2.92449 14.4774C2.80138 14.4783 2.68111 14.4402 2.58073 14.3684C2.48035 14.2966 2.40495 14.1948 2.36522 14.0774C2.28785 13.8427 2.35357 13.5695 2.55723 13.4348C2.6765 13.3544 2.81519 13.3082 2.95851 13.301C4.48672 13.2916 6.01494 13.2939 7.54315 13.2963C7.90668 13.2963 8.16721 13.5503 8.16674 13.8887C8.16627 14.2272 7.90295 14.4774 7.54268 14.4783C6.78238 14.479 6.02146 14.4786 5.25992 14.4774Z" fill="#33BD94"/>
</g>
<defs>
<clipPath id="clip0_320_2">
<rect width="14" height="18" fill="white"/>
</clipPath>
</defs>
</svg>
