<svg width="18" height="15" viewBox="0 0 18 15" fill="none" xmlns="http://www.w3.org/2000/svg">
<path d="M12.6364 14.0909V12.6364C12.6364 11.8648 12.3299 11.1249 11.7843 10.5793C11.2388 10.0338 10.4988 9.72729 9.72727 9.72729H3.90909C3.13755 9.72729 2.39761 10.0338 1.85205 10.5793C1.30649 11.1249 1 11.8648 1 12.6364V14.0909" stroke="#33BD94" stroke-width="1.5" stroke-linecap="round" stroke-linejoin="round"/>
<path d="M6.81827 6.81818C8.42492 6.81818 9.72736 5.51574 9.72736 3.90909C9.72736 2.30244 8.42492 1 6.81827 1C5.21162 1 3.90918 2.30244 3.90918 3.90909C3.90918 5.51574 5.21162 6.81818 6.81827 6.81818Z" stroke="#33BD94" stroke-width="1.5" stroke-linecap="round" stroke-linejoin="round"/>
<path d="M16.9999 14.0909V12.6363C16.9995 11.9918 16.7849 11.3656 16.39 10.8562C15.9951 10.3468 15.4422 9.98292 14.8181 9.82178" stroke="#33BD94" stroke-width="1.5" stroke-linecap="round" stroke-linejoin="round"/>
<path d="M11.9092 1.0946C12.5349 1.25482 13.0896 1.61875 13.4856 2.12901C13.8817 2.63927 14.0967 3.26684 14.0967 3.91279C14.0967 4.55873 13.8817 5.1863 13.4856 5.69656C13.0896 6.20682 12.5349 6.57075 11.9092 6.73097" stroke="#33BD94" stroke-width="1.5" stroke-linecap="round" stroke-linejoin="round"/>
</svg>
