<svg width="167" height="120" viewBox="0 0 167 120" fill="none" xmlns="http://www.w3.org/2000/svg">
<g clip-path="url(#clip0_525_508)">
<path d="M162.853 97.0546C162.344 97.0546 161.937 97.0546 161.429 96.9526C161.53 96.6466 161.53 96.4426 161.429 96.1366C161.937 96.0346 162.344 96.0346 162.853 96.0346C162.751 96.4426 162.751 96.7486 162.853 97.0546Z" fill="#33BD94"/>
<path d="M13.3026 25.9585C13.6078 25.0405 13.4044 24.2245 12.7939 23.4084C13.5061 23.3064 14.1165 23.2044 14.6252 22.7964C15.5408 23.8164 15.2356 25.2445 14.1165 26.1625C14.1165 25.8565 13.7096 25.8565 13.3026 25.9585Z" fill="#33BD94"/>
<path d="M162.345 18.9203C162.345 18.2063 162.345 17.4923 162.345 16.8802C162.752 16.6762 163.057 16.5742 163.362 16.3702C163.667 17.2882 164.074 18.2063 164.379 19.1243C163.769 19.0223 163.057 19.0223 162.345 18.9203Z" fill="#33BD94"/>
<path d="M92.3509 117.863C92.6561 117.251 91.944 116.639 92.3509 116.027C92.5544 116.231 92.7578 116.231 92.9613 116.231C92.7578 116.741 93.2665 117.251 92.9613 117.761C92.7578 117.557 92.5544 117.659 92.3509 117.863Z" fill="white"/>
<path d="M5.16332 23.9184C5.26506 24.8365 5.06158 25.2445 4.45117 25.0405C5.06158 26.0605 5.672 27.0805 6.28241 28.2026C7.4015 28.8146 8.01191 28.7126 8.11365 27.7946C7.09629 26.4685 6.18067 25.1425 5.16332 23.9184Z" fill="#33BD94"/>
<path d="M17.7789 8.61799C17.4737 8.10797 17.1685 7.69996 16.8633 7.18994C16.965 6.98594 17.0668 6.78193 17.0668 6.57793C17.6772 7.08794 18.1858 7.59796 18.7963 8.10797C18.491 8.31198 18.1858 8.41398 17.7789 8.61799Z" fill="#33BD94"/>
<path d="M96.668 3.58647C97.4819 3.17846 98.6009 3.07645 99.5166 2.66844C99.9235 2.87245 100.229 3.07645 100.636 3.28046C99.6183 4.19848 98.2957 4.50449 97.2784 5.42252C97.0749 4.8105 96.8714 4.19849 96.668 3.58647Z" fill="#33BD94"/>
<path d="M1.90804 13.6161C1.60283 13.8201 1.09416 13.9221 0.788951 14.1262C0.58548 14.0241 0.483744 13.9221 0.280273 13.9221C0.687215 13.5141 1.29763 13.3101 1.70457 12.9021C1.80631 13.2081 1.80631 13.4121 1.90804 13.6161Z" fill="#33BD94"/>
<path d="M88.4848 67.2697C91.2316 69.3098 93.1646 72.3699 94.182 75.532C93.1646 75.328 92.3507 75.838 91.7403 76.654C90.1126 74.3079 88.1796 72.3699 85.9414 70.7378C87.264 70.0238 88.1796 69.0038 88.4848 67.2697Z" fill="#33BD94"/>
<path d="M52.3691 32.2827C52.8778 31.3646 53.7934 30.8546 54.9125 30.6506C54.9125 31.0586 55.116 31.3646 55.5229 31.6707C54.8108 32.0787 54.2004 32.7927 53.7934 33.5067C53.3865 32.9967 52.9796 32.5887 52.3691 32.2827Z" fill="#33BD94"/>
<path d="M26.5283 36.9748C27.4439 36.6688 27.9526 35.9548 28.2578 34.9348C28.7665 35.4448 29.1734 35.8528 29.8856 35.9548C29.5804 37.2808 28.4613 37.9949 26.9353 37.6889C27.1387 37.5869 26.8335 37.1788 26.5283 36.9748Z" fill="#33BD94"/>
<path d="M43.1109 44.931C42.6022 43.809 41.8901 42.891 41.0762 41.769C41.7883 41.2589 42.1953 40.6469 42.6022 39.7289C43.5178 41.0549 44.7386 42.483 46.1629 43.503C44.7386 43.707 44.0265 44.115 43.1109 44.931Z" fill="#33BD94"/>
<path d="M55.2171 52.4793C55.1154 51.2553 54.7084 50.2352 53.8945 49.3172C54.1997 48.7052 54.4032 48.0932 54.4032 47.4811C56.3362 48.0932 57.964 49.3172 59.1848 51.0512C57.6588 51.4593 56.3362 51.9693 55.2171 52.4793Z" fill="#33BD94"/>
<path d="M22.3566 51.2552C23.7809 51.3572 25.2052 51.8673 26.2226 52.7853C25.8156 52.9893 25.6122 53.2953 25.6122 53.8053C24.4931 53.3973 23.374 53.1933 22.2549 53.1933C22.5601 52.4793 22.6618 51.8673 22.3566 51.2552Z" fill="#33BD94"/>
<path d="M158.784 20.5523C158.479 20.3483 157.97 20.5523 157.665 20.3483C157.767 20.3483 157.767 20.2463 157.767 20.1443C158.072 20.3483 158.377 20.1443 158.581 20.3483C158.682 20.3483 158.682 20.4503 158.784 20.5523Z" fill="#33BD94"/>
<path d="M123.889 58.0894C123.482 57.8854 123.177 57.7834 122.77 57.6814C122.77 57.4774 122.77 57.3754 122.668 57.0694C123.177 57.2734 123.787 57.3754 124.296 57.3754C124.092 57.6814 123.991 57.7834 123.889 58.0894Z" fill="#33BD94"/>
<path d="M30.3943 20.8584C29.4787 20.1443 28.4613 19.7363 27.3422 19.4303C27.1387 18.9203 26.8335 18.5123 26.5283 18.1043C28.4613 17.7983 30.3943 18.0023 32.429 18.6143C31.6151 19.4303 30.9029 20.1443 30.3943 20.8584Z" fill="#33BD94"/>
<path d="M130.196 65.1276C130.298 64.8216 130.908 64.7196 131.01 64.4136C131.417 64.5156 131.824 64.6176 132.231 64.7196C132.434 65.2296 132.028 65.5357 132.231 66.1477C131.519 65.7397 130.908 65.4337 130.196 65.1276Z" fill="#33BD94"/>
<path d="M9.02919 108.581C8.82571 108.479 8.72398 108.479 8.52051 108.377C8.52051 108.275 8.52051 108.275 8.52051 108.173C8.82571 108.173 9.02918 108.275 9.33439 108.275C9.13092 108.479 9.13092 108.581 9.02919 108.581Z" fill="white"/>
<path d="M26.5277 3.72185C26.426 4.74188 26.019 5.76191 25.3069 6.47593C25.2051 6.16992 24.8999 6.06792 24.5947 6.06792" fill="#33BD94"/>
<path d="M54.1947 9.75486C53.2791 11.6929 51.3461 13.223 50.4305 15.161C49.5148 15.263 48.5992 15.365 47.6836 15.467C48.294 12.6109 50.227 10.2649 50.8374 7.4088C51.9565 8.12282 53.0756 8.93884 54.1947 9.75486Z" fill="#33BD94"/>
<path d="M101.71 44.7271C100.795 46.6651 99.8789 48.5012 98.9633 50.4392C98.0477 50.5412 97.2338 50.6432 96.4199 50.8472C97.0303 47.9912 97.6407 45.1351 98.2512 42.279C99.3703 43.095 100.591 44.013 101.71 44.7271Z" fill="#33BD94"/>
<path d="M165.677 44.332C164.762 43.822 163.948 43.312 163.032 42.7C163.948 41.782 164.355 40.7619 164.457 39.5379" fill="#33BD94"/>
<path d="M78.1074 48.3991C78.5144 47.2771 78.9213 46.2571 79.3282 45.135C80.0404 45.135 80.6508 45.033 81.2612 44.931C81.2612 46.5631 81.3629 48.1951 81.3629 49.8272C80.1421 49.3172 79.1248 48.8072 78.1074 48.3991Z" fill="#33BD94"/>
<path d="M15.0318 113.885C15.5405 114.191 15.9474 115.007 16.5579 115.313C16.5579 115.721 16.5579 116.129 16.5579 116.537C15.6422 116.435 15.0318 115.721 14.1162 115.517C14.4214 115.007 14.7266 114.497 15.0318 113.885Z" fill="#33BD94"/>
<path d="M83.8047 82.4682C84.3134 82.3661 84.9238 82.5702 85.4325 82.4682C85.5342 82.6722 85.7377 82.7742 85.8394 82.9782C85.229 83.2842 84.4151 83.1822 83.8047 83.4882C83.8047 83.1822 83.8047 82.8762 83.8047 82.4682Z" fill="#33BD94"/>
<path d="M74.6489 48.6032C74.6489 48.2972 74.1402 48.1952 74.242 47.8891C74.3437 47.9911 74.4454 47.8891 74.5472 47.8891C74.5472 48.0932 74.9541 48.2972 74.8524 48.5012C74.7507 48.5012 74.7506 48.5012 74.6489 48.6032Z" fill="#33BD94"/>
<path d="M118.293 15.4522C118.293 15.3502 118.191 15.1462 118.191 15.0442C118.293 15.0442 118.293 15.0442 118.395 14.9422C118.497 15.1462 118.497 15.3502 118.598 15.5542C118.395 15.4522 118.395 15.4522 118.293 15.4522Z" fill="#33BD94"/>
<path d="M32.0219 118.373C31.4115 118.985 30.5976 119.495 29.682 119.597C29.7837 119.291 29.682 119.087 29.4785 118.883C30.1907 118.577 30.6993 118.067 31.208 117.557C31.3098 117.965 31.615 118.271 32.0219 118.373Z" fill="#33BD94"/>
<path d="M79.3286 36.1588C77.5991 36.5668 76.9886 38.6069 75.2591 38.9129C75.4626 38.4029 75.3609 38.0968 75.0557 37.7908C76.48 37.3828 76.9886 35.8528 78.4129 35.6488C78.3112 35.8528 78.6164 36.0568 79.3286 36.1588Z" fill="#33BD94"/>
<path d="M65.6964 62.3736C66.1034 62.8836 66.4086 63.4956 66.612 64.1076C66.2051 64.2096 65.8999 64.4136 65.6964 64.7197C65.1877 64.2096 64.8825 63.6996 64.4756 63.1896C64.9843 62.9856 65.3912 62.7816 65.6964 62.3736Z" fill="#33BD94"/>
<path d="M148.333 54.8124C149.452 55.7304 150.673 56.3424 152.097 56.6484C152.097 57.2604 152.097 57.9745 152.097 58.5865C150.164 58.3825 148.231 57.7704 146.705 56.7504C147.214 56.1384 147.824 55.4244 148.333 54.8124Z" fill="#33BD94"/>
<path d="M33.6494 91.3424C34.8702 92.0564 36.0911 92.6684 37.3119 93.3825C37.3119 93.9945 37.4136 94.5045 37.5154 95.1165C35.6841 94.6065 33.8529 94.0965 31.9199 93.5865C32.4286 92.7704 33.039 91.9544 33.6494 91.3424Z" fill="#33BD94"/>
<path d="M140.064 56.1514C140.064 55.9474 140.166 55.7434 140.37 55.5394C140.37 55.6414 140.471 55.6414 140.471 55.6414C140.37 55.8454 140.37 55.9474 140.37 56.1514C140.166 56.1514 140.166 56.1514 140.064 56.1514Z" fill="#33BD94"/>
<path d="M51.25 29.6306C51.25 29.5286 51.3517 29.5286 51.3517 29.4266H51.4535C51.4535 29.5286 51.4535 29.6306 51.4535 29.7326C51.3517 29.7326 51.3517 29.7326 51.25 29.6306Z" fill="#33BD94"/>
<path d="M35.3793 49.9292C35.481 49.5212 35.3793 49.0112 35.1758 48.7052C35.481 48.6032 35.7862 48.5012 36.0914 48.3992C36.6001 48.9092 36.8035 49.5212 36.7018 50.1332C36.1931 49.9292 35.7862 49.9292 35.3793 49.9292Z" fill="#33BD94"/>
<path d="M18.6004 78.4826C16.5657 77.6666 14.6327 76.9526 12.598 76.1366C12.4963 75.5245 12.4963 74.8105 12.3945 74.3005C15.4466 74.9125 18.4987 75.4225 21.5507 76.0346C20.5334 76.9526 19.516 77.7686 18.6004 78.4826Z" fill="#33BD94"/>
<path d="M150.848 26.2645C150.238 25.9585 149.831 25.4485 149.221 25.1425C149.221 24.9385 149.221 24.7345 149.322 24.5305C150.238 24.8365 150.95 25.3465 151.968 25.6525C151.561 25.8565 151.154 26.0605 150.848 26.2645Z" fill="#33BD94"/>
<path d="M71.8002 65.6377C72.1054 65.7397 72.5124 65.9437 72.8176 66.0457C72.8176 66.2497 72.8176 66.3517 72.7158 66.4537C72.1054 66.3517 71.5967 66.3517 70.9863 66.2497C71.2915 66.0457 71.5967 65.8417 71.8002 65.6377Z" fill="#33BD94"/>
<path d="M10.9623 9.84203C11.1657 10.046 11.7761 9.94403 11.8779 10.148C11.7761 10.148 11.6744 10.25 11.5727 10.352C11.3692 10.148 10.9623 10.25 10.7588 10.046C10.9623 10.046 10.9623 9.94403 10.9623 9.84203Z" fill="#33BD94"/>
<path d="M23.8833 38.6069C23.9851 39.2189 24.0868 39.9329 24.0868 40.5449C23.7816 40.7489 23.4764 40.8509 23.1712 41.055C22.7643 40.2389 22.3573 39.3209 21.8486 38.5049C22.5608 38.5049 23.2729 38.6069 23.8833 38.6069Z" fill="#33BD94"/>
<path d="M97.9458 83.6922C97.8441 84.8142 97.9458 85.9363 98.0475 87.1603C97.2336 87.1603 96.6232 87.3643 95.9111 87.8743C95.8093 86.3443 95.5041 84.6102 94.792 83.0802C96.0128 83.6922 96.8267 83.7942 97.9458 83.6922Z" fill="#33BD94"/>
<path d="M145.95 86.296C145.95 87.4181 145.848 88.6421 145.848 89.7642C145.238 90.0702 144.628 90.2742 144.119 90.5802C143.61 89.0501 143.102 87.4181 142.491 85.888C143.712 85.99 144.831 86.092 145.95 86.296Z" fill="#33BD94"/>
<path d="M16.9644 102.053C17.0662 102.767 17.0662 103.481 17.1679 104.093C17.0662 104.297 16.8627 104.501 16.761 104.705C16.5575 103.787 16.2523 102.869 16.0488 102.053C16.354 102.053 16.6592 102.053 16.9644 102.053Z" fill="#33BD94"/>
<path d="M59.1851 93.5865C59.1851 93.8925 59.1851 94.1985 59.2868 94.5045C59.1851 94.6065 59.1851 94.6065 59.0834 94.7085C58.9816 94.3005 58.8799 93.7905 58.8799 93.3825C58.9816 93.4845 59.0834 93.4845 59.1851 93.5865Z" fill="#33BD94"/>
<path d="M113.308 8.10797C113.308 8.41398 113.308 8.61798 113.308 8.92399C113.207 8.92399 113.207 8.92399 113.105 9.02599C113.105 8.71999 113.003 8.31197 112.901 7.90396C113.105 8.00596 113.207 8.10797 113.308 8.10797Z" fill="#33BD94"/>
<path d="M111.783 76.348C113.614 77.164 115.649 77.572 117.785 77.47C118.395 78.286 119.108 78.8981 119.82 79.4081C116.666 80.7341 113.003 81.3461 109.239 81.1421C110.257 79.5101 111.07 77.878 111.783 76.348Z" fill="#33BD94"/>
<path d="M139.556 34.8328C138.336 34.2207 137.013 34.1187 135.792 34.5268C135.589 33.7107 135.284 32.8947 135.08 32.0787C136.81 31.2627 138.539 31.0587 140.167 31.5687C139.963 32.5887 139.76 33.7107 139.556 34.8328Z" fill="#33BD94"/>
<path d="M142.652 16.5C141.635 17.3161 140.719 18.0301 139.702 18.8461C139.193 18.6421 138.684 18.5401 138.277 18.4381C139.295 17.0101 140.414 15.684 141.431 14.256C141.838 15.072 142.245 15.786 142.652 16.5Z" fill="#33BD94"/>
<path d="M141.998 108.989C142.812 109.397 143.728 109.703 144.643 110.009C144.541 110.417 144.541 110.825 144.745 111.335C143.626 110.927 142.201 110.519 140.879 110.417C141.591 109.907 141.795 109.601 141.998 108.989Z" fill="#33BD94"/>
<path d="M148.787 74.6584C147.974 75.1685 147.058 75.7805 146.244 76.2905C145.837 76.0865 145.43 75.9845 145.125 75.7805C146.041 74.7604 147.058 73.7404 147.974 72.7204C148.177 73.4344 148.482 74.0464 148.787 74.6584Z" fill="#33BD94"/>
<path d="M132.028 105.725C132.333 105.725 132.638 105.725 132.943 105.725C133.045 105.827 133.045 105.827 133.147 105.929C132.74 106.031 132.231 106.031 131.824 106.133C131.926 105.929 132.028 105.827 132.028 105.725Z" fill="#33BD94"/>
</g>
<path d="M68.8773 0.0349731C69.386 1.97303 70.4034 3.80908 71.7259 5.44113C71.5224 6.35916 71.4207 7.27718 71.5224 8.19521C68.4704 6.56316 65.7235 4.11509 63.4854 1.055C65.4183 0.748994 67.2496 0.442985 68.8773 0.0349731Z" fill="#33BD94"/>
<circle cx="89.819" cy="62.1863" r="51.0905" fill="#37D8A7"/>
<circle cx="89.8195" cy="62.1863" r="42.6632" fill="#5FE0B9"/>
<circle cx="89.8196" cy="62.1862" r="33.7092" fill="#7FE6C7"/>
<circle cx="89.82" cy="62.1863" r="25.2819" fill="white"/>
<g clip-path="url(#clip1_525_508)">
<path d="M86.5349 72.0909C86.2886 72.3387 85.9525 72.477 85.6033 72.477C85.2542 72.477 84.918 72.3387 84.6717 72.0909L77.2314 64.6495C76.4593 63.8773 76.4593 62.6253 77.2314 61.8546L78.1631 60.9227C78.9354 60.1506 80.1861 60.1506 80.9582 60.9227L85.6033 65.5681L98.1551 53.0161C98.9274 52.2439 100.179 52.2439 100.95 53.0161L101.882 53.9479C102.654 54.7201 102.654 55.9719 101.882 56.7428L86.5349 72.0909Z" fill="#05CE91"/>
</g>
<defs>
<clipPath id="clip0_525_508">
<rect width="166.439" height="115.875" fill="white" transform="translate(0.280273 3.72185)"/>
</clipPath>
<clipPath id="clip1_525_508">
<rect width="25.8086" height="25.8086" fill="white" transform="translate(76.6523 49.5453)"/>
</clipPath>
</defs>
</svg>
