<svg width="196" height="47" viewBox="0 0 196 47" fill="none" xmlns="http://www.w3.org/2000/svg">
<path d="M6.77815 21.602C12.7661 21.602 18.754 21.602 24.7463 21.6494C25.556 21.6494 25.4824 21.218 25.4824 20.7003C25.4824 15.6307 25.5084 10.5611 25.4521 5.49374C25.4412 4.51003 25.7313 4.28567 26.6579 4.33097C28.2057 4.40864 29.7601 4.37412 31.3101 4.34176C31.8752 4.33097 32.1328 4.4151 32.1306 5.0817C32.1104 18.0253 32.1104 30.9688 32.1306 43.9124C32.1306 44.5229 31.9661 44.7192 31.3448 44.7019C29.7211 44.6609 28.0975 44.6394 26.476 44.7019C25.6404 44.7386 25.4586 44.4646 25.4629 43.6729C25.4975 38.461 25.4629 33.2469 25.4997 28.0349C25.4997 27.2583 25.3547 27.0059 24.5104 27.0124C18.8471 27.0541 13.1832 27.0541 7.51853 27.0124C6.67641 27.0124 6.52919 27.2562 6.53352 28.0306C6.56816 33.2447 6.53352 38.4567 6.57033 43.6686C6.57033 44.4474 6.42528 44.7472 5.5745 44.7062C4.09803 44.6156 2.61737 44.6156 1.1409 44.7062C0.097449 44.7817 -0.00213125 44.3503 3.35938e-05 43.4809C0.0260117 32.5868 0.0317817 21.6933 0.0173494 10.8006C0.0173494 8.93025 0.0411677 7.06206 0.00220055 5.19172C-0.0107885 4.55964 0.127757 4.3094 0.822671 4.32881C2.4463 4.38059 4.06993 4.3849 5.69356 4.32881C6.4426 4.30077 6.5595 4.58122 6.5595 5.24997C6.54867 10.6431 6.57249 16.0363 6.58548 21.4294L6.77815 21.602Z" fill="white"/>
<path d="M106.759 35.4408C104.497 41.2654 100.169 44.5013 93.9974 45.073C88.1524 45.6231 83.052 43.9512 79.3999 39.1082C74.2238 32.2459 75.2867 20.7844 81.7163 15.6803C87.0483 11.4478 93.1207 10.9969 99.2233 13.7064C105.068 16.2951 107.489 21.3064 107.666 27.4978C107.699 28.6713 107.907 30.1555 107.303 30.93C106.87 31.4887 105.218 31.1328 104.109 31.1457C97.3984 31.1457 90.6874 31.163 83.9915 31.1349C83.2403 31.1349 83.0282 31.2471 83.1581 32.0582C83.7491 35.745 86.3231 38.5753 89.8907 39.3455C94.0039 40.2299 97.2512 38.9809 99.3835 35.7234C99.5524 35.4667 99.9009 35.1647 100.172 35.1625C102.365 35.1388 104.56 35.1819 106.755 35.2035L106.759 35.4408ZM91.8694 25.7741C94.5321 25.7741 97.1971 25.7396 99.8598 25.7935C100.676 25.8086 100.836 25.5325 100.726 24.812C100.451 23.1833 99.8815 21.684 98.7016 20.4975C96.0735 17.8678 92.8674 17.1796 89.3603 18.1245C85.8533 19.0694 84.0435 21.602 83.2273 24.9652C83.052 25.6857 83.3421 25.7936 83.985 25.7871C86.6132 25.7547 89.2391 25.7741 91.8694 25.7741Z" fill="white"/>
<path d="M114.156 24.5186C114.156 18.1245 114.174 11.7282 114.137 5.33194C114.137 4.53375 114.319 4.31586 115.137 4.32449C119.683 4.37195 124.229 4.27487 128.776 4.39352C130.572 4.43843 132.355 4.72136 134.077 5.23486C139.489 6.883 142.52 11.1695 142.36 16.6942C142.2 22.1845 138.918 26.4752 133.385 27.5905C130.105 28.2507 126.674 28.1579 123.29 28.2938C120.831 28.393 120.826 28.3132 120.826 30.7337C120.826 35.0482 120.807 39.3627 120.846 43.6772C120.846 44.4733 120.664 44.7429 119.833 44.7041C118.358 44.6351 116.875 44.6286 115.401 44.7041C114.451 44.7537 114.133 44.5272 114.141 43.4982C114.185 37.1666 114.156 30.8437 114.156 24.5186ZM120.815 16.3534C120.815 18.2949 120.794 20.2364 120.841 22.178C120.841 22.4282 121.22 22.8812 121.419 22.8791C124.338 22.864 127.265 22.9417 130.168 22.6849C133.54 22.3872 135.482 20.0617 135.58 16.6619C135.677 12.9082 133.984 10.436 130.536 10.0348C127.505 9.68313 124.424 9.81903 121.365 9.79099C121.186 9.79099 120.854 10.2721 120.848 10.5374C120.796 12.4725 120.815 14.414 120.815 16.3534Z" fill="white"/>
<path d="M155.7 24.4388C155.563 25.5714 155.319 26.7039 155.308 27.8365C155.265 33.1218 155.265 38.4063 155.308 43.6902C155.308 44.5099 155.091 44.73 154.288 44.6955C152.773 44.6286 151.258 44.6264 149.742 44.6955C148.889 44.7343 148.66 44.4797 148.66 43.6168C148.692 37.0005 148.675 30.3864 148.673 23.77C148.673 20.3896 148.694 17.0113 148.658 13.6309C148.658 12.8845 148.855 12.6299 149.621 12.658C151.208 12.7141 152.799 12.727 154.384 12.658C155.191 12.6235 155.345 12.9277 155.301 13.6396C155.245 14.5715 155.288 15.5099 155.301 16.444L155.418 17.0912L155.574 16.8409C157.553 13.8768 160.404 12.4703 163.896 12.1661C164.608 12.1036 164.918 12.2222 164.885 13.042C164.818 14.7958 164.885 16.5562 164.833 18.31C164.833 18.5559 164.4 18.9572 164.136 18.996C163.073 19.1362 161.971 19.078 160.921 19.2355C158.137 19.654 156.421 21.2762 155.773 24.0117C155.745 24.154 155.724 24.2964 155.7 24.4388Z" fill="white"/>
<path d="M63.0792 16.6877C65.1206 13.8315 67.9414 12.4142 71.4138 12.1575C72.0633 12.11 72.3837 12.2136 72.3555 12.9924C72.2927 14.7182 72.2971 16.444 72.3555 18.1698C72.3815 18.927 72.0806 19.0327 71.4181 19.0456C70.1972 19.0737 68.9524 19.0888 67.7682 19.3455C64.8132 19.9927 62.9644 22.3484 62.8757 25.8863C62.7306 31.7109 62.7393 37.5355 62.7674 43.3601C62.7674 44.4668 62.486 44.7839 61.3949 44.7041C59.9898 44.6178 58.5807 44.6178 57.1757 44.7041C56.3335 44.7451 56.0932 44.5099 56.0932 43.647C56.1257 34.1918 56.1127 24.7365 56.1127 15.2834C56.1127 12.6947 56.1127 12.6947 58.7452 12.6947C59.8276 12.6947 60.91 12.6494 61.9924 12.7292C62.1599 12.7763 62.3126 12.8649 62.4364 12.9868C62.5601 13.1086 62.6509 13.2597 62.7003 13.426C62.7956 14.5046 62.7653 15.5832 62.7804 16.6619C62.7804 16.7827 62.7804 16.9013 62.7804 17.02L63.0792 16.6877Z" fill="white"/>
<path d="M40.7856 28.6627C40.7856 23.6708 40.8029 18.6789 40.7661 13.687C40.7661 12.8953 40.9307 12.6257 41.7685 12.6645C43.351 12.74 44.94 12.7141 46.5311 12.6645C47.2109 12.6472 47.4663 12.8112 47.4642 13.5511C47.4411 23.6442 47.4411 33.7366 47.4642 43.8283C47.4642 44.4754 47.2888 44.6912 46.6155 44.6912C44.9962 44.6459 43.3683 44.6221 41.7533 44.6912C40.8679 44.7343 40.7748 44.374 40.7791 43.6319C40.7986 38.6444 40.7856 33.6546 40.7856 28.6627Z" fill="white"/>
<path d="M44.2104 0.00133894C46.5917 0.0250688 48.3799 1.88894 48.3431 4.31586C48.34 4.86422 48.2284 5.4066 48.0149 5.912C47.8014 6.4174 47.49 6.87592 47.0986 7.26137C46.7072 7.64681 46.2433 7.95163 45.7337 8.1584C45.224 8.36517 44.6784 8.46983 44.1281 8.46642C43.5684 8.46364 43.0147 8.35028 42.4992 8.13292C41.9837 7.91556 41.5166 7.5985 41.1248 7.20009C40.733 6.80167 40.4244 6.3298 40.2168 5.81177C40.0092 5.29375 39.9068 4.73985 39.9154 4.18211C39.9143 3.62438 40.0254 3.07209 40.2422 2.55787C40.4589 2.04365 40.7768 1.57794 41.1772 1.18821C41.5776 0.79849 42.0523 0.492663 42.5732 0.288811C43.0942 0.0849597 43.6509 -0.0127855 44.2104 0.00133894Z" fill="white"/>
<path d="M181.158 14.3097C184.232 14.3097 186.723 11.8271 186.723 8.76462C186.723 5.70215 184.232 3.21952 181.158 3.21952C178.085 3.21952 175.594 5.70215 175.594 8.76462C175.594 11.8271 178.085 14.3097 181.158 14.3097Z" fill="#F9C254"/>
<path d="M191.806 28.4185C191.373 28.4187 190.949 28.2956 190.584 28.0636C190.218 27.8316 189.928 27.5004 189.745 27.109C189.138 25.8142 188.248 24.6713 187.14 23.7642C186.032 22.857 184.734 22.2087 183.341 21.8669C181.998 21.5211 180.593 21.4798 179.232 21.7459C177.87 22.0121 176.585 22.579 175.472 23.405C174.195 24.3541 173.179 25.6087 172.517 27.0529C172.268 27.5999 171.811 28.0257 171.246 28.2367C170.681 28.4477 170.056 28.4265 169.507 28.1779C168.958 27.9293 168.531 27.4736 168.319 26.9111C168.107 26.3486 168.129 25.7252 168.378 25.1783C169.358 23.0439 170.861 21.1894 172.749 19.7851C174.402 18.5568 176.309 17.7124 178.332 17.3138C180.355 16.9151 182.441 16.9723 184.439 17.4812C186.487 17.9863 188.396 18.9422 190.025 20.2786C191.655 21.6151 192.963 23.2981 193.854 25.2041C194.016 25.5492 194.087 25.9294 194.062 26.3094C194.037 26.6894 193.917 27.0571 193.712 27.3783C193.506 27.6996 193.223 27.9641 192.888 28.1474C192.553 28.3307 192.177 28.4269 191.795 28.4271L191.806 28.4185Z" fill="white"/>
<path d="M192.564 29.1735C191.987 29.1735 191.422 29.0092 190.935 28.7C190.449 28.3909 190.061 27.9497 189.817 27.4283C189.257 26.2357 188.436 25.1829 187.415 24.3472C186.394 23.5114 185.198 22.9139 183.916 22.5982C182.681 22.2811 181.39 22.2432 180.139 22.4873C178.887 22.7314 177.707 23.2513 176.683 24.009C175.51 24.8792 174.575 26.0299 173.966 27.355C173.801 27.7162 173.567 28.0415 173.276 28.3125C172.985 28.5834 172.644 28.7946 172.271 28.934C171.899 29.0734 171.502 29.1384 171.104 29.125C170.706 29.1117 170.315 29.0204 169.952 28.8564C169.59 28.6924 169.263 28.4588 168.992 28.169C168.72 27.8793 168.508 27.539 168.368 27.1676C168.228 26.7962 168.163 26.401 168.176 26.0045C168.189 25.608 168.281 25.2181 168.446 24.8568C169.479 22.6072 171.063 20.6525 173.052 19.1725C174.796 17.8743 176.81 16.982 178.945 16.5613C181.081 16.1405 183.284 16.202 185.392 16.7412C187.55 17.2735 189.56 18.2804 191.276 19.6881C192.992 21.0958 194.37 22.8686 195.309 24.8763C195.525 25.3364 195.62 25.8432 195.587 26.3499C195.554 26.8566 195.393 27.3468 195.119 27.7751C194.846 28.2035 194.468 28.5562 194.022 28.8006C193.575 29.045 193.074 29.1733 192.564 29.1735ZM181.762 20.8228C183.739 20.8265 185.675 21.3894 187.343 22.4461C189.012 23.5027 190.346 25.0097 191.189 26.7919C191.313 27.0509 191.507 27.2696 191.751 27.4225C191.994 27.5753 192.276 27.6558 192.564 27.6548C192.875 27.6544 193.178 27.5588 193.433 27.3809C193.687 27.203 193.88 26.9514 193.986 26.6603C194.124 26.2842 194.106 25.8691 193.937 25.5062C193.091 23.704 191.852 22.1132 190.309 20.8504C188.767 19.5876 186.96 18.6848 185.022 18.2082C183.132 17.7246 181.158 17.669 179.244 18.0453C177.33 18.4216 175.525 19.2203 173.962 20.3827C172.175 21.7101 170.753 23.4647 169.827 25.4846C169.738 25.666 169.686 25.8634 169.674 26.0651C169.663 26.2668 169.693 26.4688 169.761 26.659C169.829 26.8491 169.935 27.0237 170.073 27.1723C170.21 27.321 170.376 27.4406 170.56 27.5242C170.745 27.6078 170.945 27.6536 171.147 27.659C171.35 27.6643 171.552 27.6291 171.74 27.5554C171.929 27.4817 172.101 27.371 172.246 27.2298C172.391 27.0887 172.506 26.92 172.585 26.7337C173.3 25.1767 174.398 23.8243 175.776 22.801C177.504 21.5135 179.604 20.8193 181.762 20.8228Z" fill="white"/>
<path d="M182.011 46.2362C179.474 46.2443 176.983 45.5578 174.811 44.2519C172.638 42.9459 170.867 41.0706 169.691 38.8304C169.546 38.5669 169.455 38.2772 169.423 37.9783C169.392 37.6795 169.42 37.3773 169.507 37.0895C169.594 36.8016 169.737 36.5339 169.929 36.3018C170.12 36.0697 170.356 35.8779 170.623 35.7377C170.89 35.5974 171.182 35.5114 171.482 35.4848C171.783 35.4581 172.085 35.4913 172.373 35.5823C172.66 35.6734 172.927 35.8206 173.156 36.0152C173.386 36.2099 173.575 36.4482 173.711 36.7162C174.532 38.2234 175.747 39.4809 177.227 40.3552C178.707 41.2295 180.397 41.6878 182.118 41.6817C183.839 41.6755 185.526 41.2049 187 40.32C188.473 39.4351 189.679 38.1689 190.489 36.6558C190.623 36.3858 190.81 36.1453 191.039 35.9483C191.268 35.7513 191.534 35.6018 191.822 35.5086C192.11 35.4154 192.413 35.3803 192.714 35.4054C193.016 35.4305 193.309 35.5154 193.577 35.6549C193.845 35.7944 194.083 35.9859 194.276 36.218C194.469 36.4502 194.613 36.7184 194.701 37.0069C194.788 37.2954 194.817 37.5984 194.786 37.8982C194.754 38.198 194.663 38.4885 194.518 38.7527C193.311 41.014 191.51 42.9053 189.306 44.2237C187.103 45.5421 184.581 46.2378 182.011 46.2362Z" fill="#F03160"/>
<path d="M181.497 46.9999C178.822 47.0081 176.196 46.2842 173.905 44.9071C171.615 43.5301 169.748 41.5527 168.508 39.1906C168.144 38.4835 168.075 37.662 168.315 36.9043C168.555 36.1465 169.085 35.5136 169.79 35.1427C170.496 34.7718 171.319 34.6927 172.082 34.9226C172.845 35.1526 173.487 35.673 173.868 36.3711C174.621 37.7595 175.739 38.9182 177.101 39.7238C178.463 40.5295 180.018 40.952 181.602 40.9462C183.186 40.9405 184.739 40.5067 186.095 39.6912C187.451 38.8756 188.56 37.7088 189.303 36.315C189.488 35.9634 189.74 35.6516 190.046 35.3973C190.352 35.1429 190.705 34.9511 191.085 34.8327C191.465 34.7143 191.865 34.6717 192.262 34.7073C192.658 34.7428 193.044 34.8559 193.397 35.0401C193.75 35.2242 194.063 35.4758 194.318 35.7805C194.573 36.0851 194.766 36.4369 194.884 36.8157C195.003 37.1945 195.046 37.5929 195.01 37.9882C194.975 38.3835 194.861 38.7679 194.676 39.1195C193.712 40.9337 192.379 42.5277 190.761 43.7995C189.144 45.0713 187.278 45.9931 185.283 46.5059C184.047 46.8303 182.775 46.9963 181.497 46.9999ZM171.184 36.2719C170.922 36.2722 170.666 36.3397 170.439 36.4679C170.212 36.596 170.022 36.7805 169.887 37.0033C169.753 37.2262 169.678 37.4799 169.671 37.7399C169.663 37.9999 169.724 38.2574 169.846 38.4874C170.895 40.4716 172.434 42.1569 174.318 43.3844C176.455 44.7666 178.949 45.4983 181.497 45.4898C183.928 45.4904 186.314 44.832 188.399 43.5852C190.483 42.3384 192.189 40.5502 193.332 38.4119C193.517 38.057 193.553 37.6436 193.432 37.2623C193.311 36.8811 193.044 36.5631 192.688 36.378C192.333 36.193 191.918 36.156 191.535 36.2752C191.152 36.3945 190.832 36.6601 190.645 37.014C189.787 38.6674 188.491 40.0548 186.897 41.0254C185.303 41.9959 183.473 42.5125 181.605 42.5189C179.737 42.5254 177.903 42.0215 176.302 41.0619C174.701 40.1024 173.395 38.724 172.526 37.0765C172.398 36.8317 172.205 36.6264 171.969 36.483C171.732 36.3397 171.46 36.2636 171.184 36.2632V36.2719Z" fill="#F03160"/>
</svg>
