<svg width="7" height="7" viewBox="0 0 7 7" fill="none" xmlns="http://www.w3.org/2000/svg">
<path d="M2.9937 0.624942C3.08351 0.348549 3.47453 0.348548 3.56434 0.624942L4.10593 2.2918C4.1461 2.41541 4.26128 2.4991 4.39125 2.4991H6.14389C6.43451 2.4991 6.55534 2.87098 6.32023 3.0418L4.90231 4.07198C4.79716 4.14837 4.75317 4.28378 4.79333 4.40739L5.33492 6.07425C5.42473 6.35064 5.10839 6.58048 4.87327 6.40966L3.45536 5.37948C3.35021 5.30309 3.20783 5.30309 3.10269 5.37948L1.68477 6.40966C1.44966 6.58048 1.13331 6.35064 1.22312 6.07425L1.76471 4.40739C1.80488 4.28378 1.76088 4.14837 1.65573 4.07198L0.237816 3.0418C0.00270225 2.87098 0.123534 2.4991 0.414152 2.4991H2.16679C2.29676 2.4991 2.41195 2.41541 2.45211 2.2918L2.9937 0.624942Z" fill="#FFC700"/>
</svg>
